<svg width="960" height="720" xmlns="http://www.w3.org/2000/svg" xmlns:xlink="http://www.w3.org/1999/xlink" xml:space="preserve" overflow="hidden"><defs><clipPath id="clip0"><rect x="160" y="0" width="960" height="720"/></clipPath></defs><g clip-path="url(#clip0)" transform="translate(-160 0)"><path d="M783.359 440.519C795.074 406.55 801.455 370.104 801.455 332.157 801.455 148.712 652.748 0 469.299 0 285.849 0 137.147 148.712 137.147 332.157 137.147 370.104 143.528 406.55 155.243 440.519L783.354 440.519Z" fill="#B5D994" transform="matrix(1.00017 0 0 1 160 0.10844)"/><path d="M840.524 596.784 650.689 596.784C642.862 604.023 625.12 624.477 649.801 643.465L719.848 643.465C750.876 643.465 776.036 660.549 776.036 681.627 776.036 702.704 750.876 719.788 719.848 719.788L65.4652 719.788C34.4325 719.788 9.27739 702.704 9.27739 681.627 9.27739 660.549 34.4276 643.465 65.4652 643.465L169.75 643.465C180.164 636.496 202.313 617.104 164.75 596.784L103.078 596.784C68.1123 596.784 39.7667 579.929 39.7667 559.131 39.7667 538.333 68.1173 521.483 103.078 521.483L840.529 521.483C875.495 521.483 903.84 538.338 903.84 559.131 903.84 579.924 875.495 596.784 840.529 596.784Z" fill="#B6D88C" transform="matrix(1.00017 0 0 1 160 0.10844)"/><path d="M509.434 147.96C499.215 157.107 484.319 157.147 476.168 148.044 468.022 138.947 469.702 124.146 479.927 114.993 490.146 105.845 505.037 105.805 513.188 114.908 521.334 124.011 519.654 138.807 509.434 147.96Z" fill="#5CB4D6" transform="matrix(1.00017 0 0 1 160 0.10844)"/><path d="M506.059 144.67C499.374 150.657 489.768 150.841 484.608 145.078 479.448 139.315 480.695 129.794 487.375 123.802 494.065 117.814 503.666 117.63 508.826 123.393 513.986 129.151 512.744 138.677 506.059 144.665Z" fill="#FEDBA6" transform="matrix(1.00017 0 0 1 160 0.10844)"/><path d="M601.859 228.759C601.859 228.759 644.427 235.13 666.691 264.383 683.611 286.622 656.646 302.156 646.8 289.464 636.092 275.65 617.248 255.011 599.666 247.578L601.864 228.754Z" fill="#7AD0E7" transform="matrix(1.00017 0 0 1 160 0.10844)"/><path d="M665.24 288.013C660.604 280.794 654.333 274.568 647.443 269.488 637.059 261.821 624.038 255.968 610.937 253.909 624.876 263.471 638.365 278.581 646.8 289.464 651.656 295.72 660.669 295.117 666.527 290.231 666.128 289.479 665.704 288.736 665.235 288.013Z" fill="#CCDDF2" transform="matrix(1.00017 0 0 1 160 0.10844)"/><path d="M497.335 223.924C497.335 223.924 454.757 230.29 432.503 259.548 415.583 281.791 442.543 297.325 452.389 284.628 463.102 270.814 481.941 250.181 499.529 242.743L497.335 223.924Z" fill="#7AD0E7" transform="matrix(1.00017 0 0 1 160 0.10844)"/><path d="M433.949 283.182C438.59 275.964 444.856 269.737 451.751 264.652 462.13 256.985 475.146 251.138 488.257 249.074 474.314 258.635 460.829 273.75 452.389 284.628 447.538 290.884 438.53 290.281 432.663 285.396 433.066 284.643 433.49 283.9 433.954 283.182Z" fill="#CCDDF2" transform="matrix(1.00017 0 0 1 160 0.10844)"/><path d="M589.8 147.96C600.02 157.107 614.92 157.147 623.066 148.044 631.217 138.947 629.537 124.146 619.317 114.993 609.097 105.845 594.197 105.805 586.051 114.908 577.905 124.011 579.58 138.807 589.8 147.96Z" fill="#5CB4D6" transform="matrix(1.00017 0 0 1 160 0.10844)"/><path d="M593.18 144.67C599.865 150.657 609.471 150.841 614.631 145.078 619.786 139.315 618.549 129.794 611.859 123.802 605.174 117.814 595.568 117.63 590.413 123.393 585.253 129.151 586.49 138.677 593.18 144.665Z" fill="#FEDBA6" transform="matrix(1.00017 0 0 1 160 0.10844)"/><path d="M630.419 304.753C630.419 353.219 597.542 379.7 547.745 379.7 490.446 379.7 467.962 351.29 467.962 302.824 467.962 254.358 500.84 204.187 547.745 204.187 594.65 204.187 630.419 256.287 630.419 304.753Z" fill="#7AD0E7" transform="matrix(1.00017 0 0 1 160 0.10844)"/><path d="M591.714 220.314C607.338 236.412 617.059 258.257 617.059 282.031 617.059 330.556 576.564 371.046 528.044 371.046 513.951 371.046 500.536 367.626 488.591 361.584 501.418 373.364 520.706 379.695 547.75 379.695 597.547 379.695 630.424 353.219 630.424 304.748 630.424 272.898 615.603 239.482 591.719 220.309Z" fill="#CCDDF2" transform="matrix(1.00017 0 0 1 160 0.10844)"/><path d="M605.289 305.486C605.289 339.799 583.17 358.543 549.669 358.543 511.129 358.543 495.999 338.428 495.999 304.115 495.999 269.802 518.113 234.288 549.669 234.288 581.225 234.288 605.289 271.173 605.289 305.486Z" fill="#FEDBA6" transform="matrix(1.00017 0 0 1 160 0.10844)"/><path d="M580.901 247.165C589.331 258.122 588.603 269.817 588.603 284.449 588.603 319.823 559.086 349.34 523.717 349.34 518.532 349.34 519.265 350.637 514.414 349.445 522.844 355.382 534.42 358.548 549.674 358.548 583.18 358.548 605.294 339.799 605.294 305.491 605.294 283.726 596.002 260.929 580.901 247.165Z" fill="#EBE0D8" transform="matrix(1.00017 0 0 1 160 0.10844)"/><path d="M623.415 189.197C623.415 226.446 590.184 248.112 550.223 248.112 510.262 248.112 477.629 224.273 477.629 187.023 477.629 149.774 510.272 113.218 550.223 113.218 590.174 113.218 623.415 151.948 623.415 189.197Z" fill="#7AD0E7" transform="matrix(1.00017 0 0 1 160 0.10844)"/><path d="M608.868 145.946C610.284 151.569 611.042 157.437 611.042 163.449 611.042 195.583 589.536 223.44 560.363 233.246 552.002 236.606 542.924 238.465 533.483 238.465 533.188 238.465 532.904 238.455 532.62 238.455 532.426 238.455 532.231 238.465 532.032 238.465 518.811 238.465 506.308 234.826 495.486 228.51 508.826 241.008 528.433 248.107 550.228 248.107 590.184 248.107 623.42 226.441 623.42 189.192 623.42 174.132 617.981 158.827 608.868 145.941Z" fill="#CCDDF2" transform="matrix(1.00017 0 0 1 160 0.10844)"/><path d="M524.18 175.637C524.18 180.318 520.386 184.117 515.7 184.117 511.014 184.117 507.221 180.318 507.221 175.637 507.221 170.956 511.019 167.158 515.7 167.158 520.381 167.158 524.18 170.951 524.18 175.637Z" fill="#242E63" transform="matrix(1.00017 0 0 1 160 0.10844)"/><path d="M521.468 177.163C521.468 179.361 519.689 181.141 517.495 181.141 515.302 181.141 513.517 179.361 513.517 177.163 513.517 174.964 515.297 173.19 517.495 173.19 519.694 173.19 521.468 174.969 521.468 177.163Z" fill="#FEDBA6" transform="matrix(1.00017 0 0 1 160 0.10844)"/><path d="M515.037 171.066C515.037 172.088 514.205 172.92 513.183 172.92 512.161 172.92 511.333 172.088 511.333 171.066 511.333 170.044 512.161 169.211 513.183 169.211 514.205 169.211 515.037 170.039 515.037 171.066Z" fill="#FEDBA6" transform="matrix(1.00017 0 0 1 160 0.10844)"/><path d="M511.857 173.783C511.857 174.35 511.397 174.81 510.83 174.81 510.263 174.81 509.803 174.35 509.803 173.783 509.803 173.216 510.263 172.756 510.83 172.756 511.397 172.756 511.857 173.216 511.857 173.783Z" fill="#FEDBA6" transform="matrix(1.00017 0 0 1 160 0.10844)"/><path d="M574.515 175.637C574.515 180.318 578.314 184.117 582.995 184.117 587.676 184.117 591.47 180.318 591.47 175.637 591.47 170.956 587.676 167.158 582.995 167.158 578.314 167.158 574.515 170.951 574.515 175.637Z" fill="#242E63" transform="matrix(1.00017 0 0 1 160 0.10844)"/><path d="M577.222 177.163C577.222 179.361 579.012 181.141 581.206 181.141 583.399 181.141 585.179 179.361 585.179 177.163 585.179 174.964 583.399 173.19 581.206 173.19 579.012 173.19 577.222 174.969 577.222 177.163Z" fill="#FEDBA6" transform="matrix(1.00017 0 0 1 160 0.10844)"/><path d="M583.653 171.066C583.653 172.088 584.481 172.92 585.508 172.92 586.535 172.92 587.362 172.088 587.362 171.066 587.362 170.044 586.535 169.211 585.508 169.211 584.481 169.211 583.653 170.039 583.653 171.066Z" fill="#FEDBA6" transform="matrix(1.00017 0 0 1 160 0.10844)"/><path d="M586.834 173.783C586.834 174.351 587.292 174.81 587.866 174.81 588.439 174.81 588.893 174.346 588.893 173.783 588.893 173.22 588.429 172.756 587.866 172.756 587.302 172.756 586.834 173.22 586.834 173.783Z" fill="#FEDBA6" transform="matrix(1.00017 0 0 1 160 0.10844)"/><path d="M581.136 204.407C581.136 219.796 568.787 229.502 549.924 229.502 531.06 229.502 517.854 219.213 517.854 203.823 517.854 188.434 533.517 176.834 550.098 176.834 566.679 176.834 581.141 189.018 581.141 204.412Z" fill="#FEDBA6" transform="matrix(1.00017 0 0 1 160 0.10844)"/><path d="M546.628 223.819C535.641 223.819 525.666 218.789 518.881 210.947 522.316 222.303 534.076 229.497 549.924 229.497 568.792 229.497 581.136 219.791 581.136 204.402 581.136 203.046 581.021 201.715 580.802 200.419 575.363 214.008 561.973 223.814 546.628 223.814Z" fill="#EBE0D8" transform="matrix(1.00017 0 0 1 160 0.10844)"/><path d="M561.489 200.334C563.493 193.599 557.192 187.522 550.103 187.522 543.014 187.522 535.477 192.373 537.894 200.105 539.131 204.068 544.34 209.033 549.246 209.497L549.246 219.691C545.532 219.502 542.271 217.902 540.995 215.588 540.816 215.264 540.407 215.145 540.078 215.324 539.754 215.504 539.634 215.913 539.814 216.242 541.434 219.163 545.432 221.057 549.988 221.057 554.545 221.057 558.304 219.273 560.014 216.511 560.208 216.197 560.108 215.783 559.794 215.583 559.475 215.389 559.061 215.484 558.862 215.798 557.471 218.051 554.266 219.542 550.597 219.691L550.597 209.507C554.914 209.168 559.994 205.364 561.494 200.329Z" fill="#242E63" transform="matrix(1.00017 0 0 1 160 0.10844)"/><path d="M546.718 191.101C549.056 189.077 552.855 189.481 553.388 191.919 553.927 194.357 548.961 192.213 547.471 195.713 545.542 200.259 539.769 202.757 540.148 196.425 540.447 191.44 544.32 193.18 546.718 191.106Z" fill="#B3E4FA" fill-opacity="0.2" transform="matrix(1.00017 0 0 1 160 0.10844)"/><path d="M490.326 251.083C490.326 251.083 494.922 239.961 499.274 242.867 503.626 245.769 515.232 252.778 521.274 252.534 527.321 252.294 515.955 265.59 511.119 283.476 506.283 301.368 482.35 323.368 480.415 305.715 478.481 288.068 482.35 270.176 490.326 251.078Z" fill="#FFFFFF" transform="matrix(1.00017 0 0 1 160 0.10844)"/><path d="M632.757 338.777C627.657 366.365 616.296 387.392 587.043 381.988 557.8 376.584 554.699 352.885 559.804 325.302 564.894 297.714 582.437 277.145 604.641 281.248 626.84 285.351 637.847 311.189 632.757 338.777Z" fill="#5CB4D6" transform="matrix(1.00017 0 0 1 160 0.10844)"/><path d="M619.217 345.896C615.364 366.749 607.178 382.721 586.684 378.932 566.185 375.149 564.246 357.302 568.094 336.449 571.948 315.591 584.476 299.913 600.034 302.784 615.593 305.66 623.071 325.038 619.217 345.896Z" fill="#FEDBA6" transform="matrix(1.00017 0 0 1 160 0.10844)"/><path d="M630.145 304.045C630.648 307.116 630.928 310.262 630.928 313.457 630.928 345.587 604.122 372.392 572.003 372.392 570.283 372.392 568.583 372.302 566.893 372.148 571.469 376.893 578.01 380.318 587.048 381.988 616.301 387.392 627.662 366.365 632.762 338.777 635.085 326.204 634.053 314.001 630.15 304.045Z" fill="#CCDDF2" transform="matrix(1.00017 0 0 1 160 0.10844)"/><path d="M460.874 338.777C465.973 366.365 477.33 387.392 506.578 381.988 535.826 376.584 538.926 352.885 533.826 325.302 528.732 297.714 511.189 277.145 488.985 281.248 466.786 285.351 455.774 311.189 460.874 338.777Z" fill="#5CB4D6" transform="matrix(1.00017 0 0 1 160 0.10844)"/><path d="M474.408 345.896C478.262 366.749 486.452 382.721 506.946 378.932 527.44 375.149 529.39 357.302 525.536 336.449 521.673 315.591 509.15 299.913 493.591 302.784 478.037 305.66 470.56 325.038 474.408 345.896Z" fill="#FEDBA6" transform="matrix(1.00017 0 0 1 160 0.10844)"/><path d="M463.486 304.045C462.972 307.116 462.693 310.262 462.693 313.457 462.693 345.587 489.498 372.392 521.628 372.392 523.348 372.392 525.043 372.302 526.733 372.148 522.156 376.893 515.621 380.318 506.573 381.988 477.33 387.392 465.968 366.365 460.869 338.777 458.546 326.204 459.577 314.001 463.481 304.045Z" fill="#CCDDF2" transform="matrix(1.00017 0 0 1 160 0.10844)"/><path d="M500.7 142.845C508.322 133.393 532.82 117.959 528.188 133.009 523.562 148.054 512.111 140.312 510.052 148.827 505.905 165.996 492.011 182.751 489.309 172.073 486.896 162.521 490.246 155.806 500.695 142.845Z" fill="#FFFFFF" transform="matrix(1.00017 0 0 1 160 0.10844)"/><path d="M302.61 313.353C296.543 316.398 288.96 321.035 290.775 352.192 291.453 363.867 297.57 379.446 287.809 379.446 280.859 379.446 252.673 335.327 273.257 302.605 288.736 278.003 312.779 308.253 302.61 313.358Z" fill="#1B2354" transform="matrix(1.00017 0 0 1 160 0.10844)"/><path d="M275.505 350.263C271.338 342.556 269.403 333.198 268.83 324.534 268.327 316.947 269.792 309.594 273.057 302.949 252.878 335.641 280.884 379.446 287.814 379.446 294.743 379.446 293.636 371.31 292.151 362.392 285.166 360.936 279.08 356.863 275.515 350.258Z" fill="#3F8AB6" transform="matrix(1.00017 0 0 1 160 0.10844)"/><path d="M284.194 304.334C285.71 302.176 290.381 297.739 294.992 301.737 299.613 305.735 300.91 308.537 295.271 311.717 289.623 314.898 287.883 318.896 288.192 326.174 288.501 333.458 272.085 321.608 284.194 304.334Z" fill="#FFFFFF" fill-opacity="0.2" transform="matrix(1.00017 0 0 1 160 0.10844)"/><path d="M357.307 313.353C363.379 316.398 370.951 321.035 369.147 352.192 368.469 363.867 362.352 379.446 372.108 379.446 379.067 379.446 407.253 335.327 386.664 302.605 371.185 278.003 347.137 308.253 357.312 313.358Z" fill="#1B2354" transform="matrix(1.00017 0 0 1 160 0.10844)"/><path d="M384.411 350.263C388.574 342.556 390.518 333.198 391.086 324.534 391.595 316.947 390.124 309.594 386.864 302.949 407.044 335.641 379.037 379.446 372.103 379.446 365.168 379.446 366.29 371.31 367.781 362.392 374.76 360.936 380.852 356.863 384.411 350.258Z" fill="#3F8AB6" transform="matrix(1.00017 0 0 1 160 0.10844)"/><path d="M375.732 304.334C374.216 302.176 369.545 297.739 364.934 301.737 360.323 305.735 359.022 308.537 364.66 311.717 370.298 314.898 372.043 318.896 371.739 326.174 371.43 333.458 387.846 321.608 375.737 304.334Z" fill="#FFFFFF" fill-opacity="0.2" transform="matrix(1.00017 0 0 1 160 0.10844)"/><path d="M376.215 274.747C376.215 325.192 355.328 346.758 329.564 346.758 303.801 346.758 282.913 323.457 282.913 273.013 282.913 222.568 306.214 161.37 329.923 161.37 352.322 161.37 376.215 224.308 376.215 274.752Z" fill="#FFCD28" transform="matrix(1.00017 0 0 1 160 0.10844)"/><path d="M366.998 215.105C367.352 221.022 367.432 226.945 367.172 232.857 366.579 246.576 364.087 259.941 360.118 273.067 356.34 285.565 350.931 297.265 341.549 306.568 332.595 315.436 321.568 321.424 308.831 322.161 302.889 322.505 296.867 321.668 291.323 319.489 299.763 337.964 313.746 346.758 329.564 346.758 355.328 346.758 376.215 325.197 376.215 274.747 376.215 255.28 372.656 233.959 367.003 215.105Z" fill="#BCA5BE" transform="matrix(1.00017 0 0 1 160 0.10844)"/><path d="M331.518 194.097C341.598 194.097 351.564 195.543 361.125 198.3 352.401 176.704 340.98 161.365 329.923 161.365 317.774 161.365 305.745 177.432 296.882 199.88 307.964 196.096 319.664 194.097 331.514 194.097Z" fill="#1B2354" transform="matrix(1.00017 0 0 1 160 0.10844)"/><path d="M351.599 225.778C351.599 238.092 341.618 248.067 329.305 248.067 316.992 248.067 307.011 238.087 307.011 225.778 307.011 213.47 316.992 203.484 329.305 203.484 341.618 203.484 351.599 213.465 351.599 225.778Z" fill="#00A2CE" transform="matrix(1.00017 0 0 1 160 0.10844)"/><path d="M344.839 225.778C344.839 234.358 337.885 241.317 329.3 241.317 320.716 241.317 313.766 234.363 313.766 225.778 313.766 217.194 320.721 210.239 329.3 210.239 337.88 210.239 344.839 217.194 344.839 225.778Z" fill="#7AD0E7" transform="matrix(1.00017 0 0 1 160 0.10844)"/><path d="M332.889 289.867C332.889 289.867 346.693 289.703 345.826 305.71 344.954 321.718 342.197 384.007 331.185 384.007 320.172 384.007 317.475 316.284 317.45 305.511 317.435 300.267 318.213 289.867 332.884 289.867Z" fill="#1B2354" transform="matrix(1.00017 0 0 1 160 0.10844)"/><path d="M331.553 358.862C327.969 358.862 324.504 358.254 321.254 357.152 323.368 371.918 326.533 384.007 331.185 384.007 335.836 384.007 339.241 372.063 341.429 357.292 338.303 358.309 334.978 358.862 331.548 358.862Z" fill="#3F8AB6" transform="matrix(1.00017 0 0 1 160 0.10844)"/><path d="M324.13 172.237C333.916 171.884 342.177 184.092 326.085 193.659 309.988 203.23 306.508 202.358 306.508 217.583 306.508 232.807 303.098 243.441 295.202 239.871 281.717 233.784 312.051 172.671 324.13 172.232Z" fill="#FFFFFF" transform="matrix(1.00017 0 0 1 160 0.10844)"/><path d="M239.647 533.996C239.647 543.538 232.159 551.28 222.927 551.28L67.8531 551.28C58.6106 551.28 51.1279 543.543 51.1279 533.996L51.1279 389.461C51.1279 379.919 58.6106 372.182 67.8531 372.182L222.927 372.182C232.159 372.182 239.647 379.919 239.647 389.461L239.647 533.996Z" fill="#FCB233" transform="matrix(1.00017 0 0 1 160 0.10844)"/><path d="M223.006 521.239C223.006 529.101 216.84 535.467 209.232 535.467L81.5374 535.467C73.93 535.467 67.7683 529.096 67.7683 521.239L67.7683 402.218C67.7683 394.362 73.93 387.99 81.5374 387.99L209.232 387.99C216.84 387.99 223.006 394.362 223.006 402.218L223.006 521.239Z" stroke="#000030" stroke-width="5.82267" stroke-miterlimit="10" fill="none" transform="matrix(1.00017 0 0 1 160 0.10844)"/><path d="M61.4721 406.121C61.4721 406.121 59.6824 380.169 78.9251 381.958 98.1629 383.748 109.798 385.538 124.116 382.856 138.433 380.169 133.069 403.439 111.593 406.57 90.1168 409.706 82.5095 406.57 82.5095 419.098 82.5095 431.626 60.5847 439.383 61.4771 406.126Z" fill="#EBE0D8" transform="matrix(1.00017 0 0 1 160 0.10844)"/><path d="M178.494 407.577 114.026 407.577C108.512 407.577 104.045 412.044 104.045 417.557 104.045 423.071 108.512 427.538 114.026 427.538L136.274 427.538 136.274 515.257C136.274 520.765 140.746 525.237 146.26 525.237 151.773 525.237 156.24 520.77 156.24 515.257L156.24 427.538 178.489 427.538C184.002 427.538 188.469 423.071 188.469 417.557 188.469 412.044 184.002 407.577 178.489 407.577Z" fill="#000030" transform="matrix(1.00017 0 0 1 160 0.10844)"/><path d="M224.148 372.247C224.656 395 225.454 417.757 224.881 440.509 224.203 467.399 224.901 499.733 198.863 515.626 180.967 526.553 158.189 526.458 138.059 526.139 108.712 525.681 80.4805 524.893 51.1279 524.933L51.1279 533.996C51.1279 543.538 58.6106 551.28 67.8531 551.28L222.927 551.28C232.159 551.28 239.647 543.543 239.647 533.996L239.647 389.461C239.647 380.343 232.812 372.895 224.148 372.247Z" fill="#FBD2C1" transform="matrix(1.00017 0 0 1 160 0.10844)"/><path d="M439.293 537.152C439.293 546.698 431.8 554.435 422.568 554.435L267.489 554.435C258.257 554.435 250.774 546.698 250.774 537.152L250.774 392.617C250.774 383.075 258.257 375.338 267.489 375.338L422.568 375.338C431.8 375.338 439.293 383.075 439.293 392.617L439.293 537.152Z" fill="#2ABAA4" transform="matrix(1.00017 0 0 1 160 0.10844)"/><path d="M425.838 526.847C425.838 535.028 419.417 541.663 411.5 541.663L278.551 541.663C270.635 541.663 264.214 535.028 264.214 526.847L264.214 402.931C264.214 394.745 270.635 388.115 278.551 388.115L411.5 388.115C419.422 388.115 425.838 394.745 425.838 402.931L425.838 526.847Z" stroke="#000030" stroke-width="5.82267" stroke-miterlimit="10" fill="none" transform="matrix(1.00017 0 0 1 160 0.10844)"/><path d="M258.92 406.859C258.92 406.859 257.125 380.907 276.368 382.691 295.61 384.481 307.246 386.271 321.563 383.589 335.885 380.902 330.516 404.172 309.04 407.303 287.564 410.434 279.957 407.303 279.957 419.826 279.957 432.348 258.027 440.115 258.925 406.854Z" fill="#FFFFFF" transform="matrix(1.00017 0 0 1 160 0.10844)"/><path d="M423.794 375.403C424.292 398.16 425.095 420.913 424.522 443.67 423.844 470.565 424.542 502.898 398.509 518.786 380.602 529.719 357.835 529.619 337.7 529.3 308.352 528.841 280.126 528.054 250.774 528.099L250.774 537.157C250.774 546.703 258.257 554.44 267.489 554.44L422.568 554.44C431.8 554.44 439.293 546.703 439.293 537.157L439.293 392.622C439.293 383.504 432.448 376.051 423.794 375.403Z" fill="#9BBFC3" transform="matrix(1.00017 0 0 1 160 0.10844)"/><path d="M346.459 523.273C315.935 523.273 291.084 496.852 291.084 464.383 291.084 431.915 315.93 405.493 346.459 405.493 376.988 405.493 401.824 431.91 401.824 464.383 401.824 496.856 376.988 523.273 346.459 523.273ZM346.459 425.778C327.117 425.778 311.378 443.096 311.378 464.383 311.378 485.67 327.117 502.988 346.459 502.988 365.801 502.988 381.535 485.675 381.535 464.383 381.535 443.091 365.806 425.778 346.459 425.778Z" fill="#000030" transform="matrix(1.00017 0 0 1 160 0.10844)"/><path d="M640.335 538.084C640.335 547.625 632.847 555.362 623.604 555.362L468.531 555.362C459.298 555.362 451.806 547.62 451.806 538.084L451.806 393.549C451.806 384.007 459.298 376.265 468.531 376.265L623.604 376.265C632.847 376.265 640.335 384.007 640.335 393.549L640.335 538.084Z" fill="#AB459A" transform="matrix(1.00017 0 0 1 160 0.10844)"/><path d="M625.205 526.483C625.205 534.495 618.913 540.995 611.161 540.995L480.974 540.995C473.222 540.995 466.936 534.495 466.936 526.483L466.936 405.144C466.936 397.133 473.222 390.638 480.974 390.638L611.161 390.638C618.913 390.638 625.205 397.128 625.205 405.144L625.205 526.483Z" stroke="#000030" stroke-width="5.82267" stroke-miterlimit="10" fill="none" transform="matrix(1.00017 0 0 1 160 0.10844)"/><path d="M624.836 376.33C625.344 399.082 626.137 421.845 625.563 444.597 624.891 471.492 625.588 503.821 599.551 519.719 581.644 530.646 558.872 530.546 538.737 530.232 509.389 529.769 481.168 528.986 451.806 529.026L451.806 538.089C451.806 547.63 459.298 555.367 468.531 555.367L623.604 555.367C632.847 555.367 640.335 547.625 640.335 538.089L640.335 393.554C640.335 384.436 633.49 376.988 624.836 376.335Z" fill="#DEA6C0" transform="matrix(1.00017 0 0 1 160 0.10844)"/><path d="M463.461 410.474C463.461 410.474 461.676 384.521 480.914 386.305 500.152 388.1 511.787 389.885 526.109 387.203 540.427 384.516 535.058 407.787 513.577 410.922 492.101 414.053 484.493 410.922 484.493 423.445 484.493 435.968 462.569 443.73 463.461 410.469Z" fill="#EBE0D8" transform="matrix(1.00017 0 0 1 160 0.10844)"/><path d="M590.947 409.885C586.37 406.66 580.034 407.757 576.809 412.343L546.758 455.046 516.697 412.343C513.472 407.762 507.146 406.665 502.56 409.885 497.983 413.106 496.881 419.437 500.107 424.018L536.608 475.879 536.608 517.779C536.608 523.383 541.155 527.919 546.758 527.919 552.361 527.919 556.898 523.383 556.898 517.779L556.898 475.879 593.404 424.018C596.63 419.437 595.528 413.111 590.947 409.885Z" fill="#000030" transform="matrix(1.00017 0 0 1 160 0.10844)"/><path d="M843.306 539.39C843.306 548.932 835.818 556.669 826.58 556.669L671.502 556.669C662.264 556.669 654.777 548.932 654.777 539.39L654.777 394.85C654.777 385.308 662.264 377.571 671.502 377.571L826.58 377.571C835.813 377.571 843.306 385.308 843.306 394.85L843.306 539.39Z" fill="#00A2CE" transform="matrix(1.00017 0 0 1 160 0.10844)"/><path d="M828.171 527.789C828.171 535.801 821.884 542.301 814.132 542.301L683.945 542.301C676.193 542.301 669.912 535.806 669.912 527.789L669.912 406.456C669.912 398.439 676.193 391.944 683.945 391.944L814.132 391.944C821.884 391.944 828.171 398.439 828.171 406.456L828.171 527.789Z" stroke="#000030" stroke-width="5.82267" stroke-miterlimit="10" fill="none" transform="matrix(1.00017 0 0 1 160 0.10844)"/><path d="M827.802 377.636C828.305 400.389 829.108 423.146 828.53 445.898 827.852 472.798 828.549 505.127 802.517 521.02 784.61 531.952 761.838 531.847 741.703 531.533 712.355 531.075 684.134 530.292 654.772 530.327L654.772 539.39C654.772 548.932 662.259 556.669 671.497 556.669L826.575 556.669C835.808 556.669 843.301 548.932 843.301 539.39L843.301 394.85C843.301 385.737 836.461 378.284 827.802 377.636Z" fill="#92BBCF" transform="matrix(1.00017 0 0 1 160 0.10844)"/><path d="M666.437 411.775C666.437 411.775 664.652 385.827 683.885 387.617 703.123 389.406 714.758 391.196 729.08 388.509 743.393 385.827 738.029 409.093 716.548 412.223 695.072 415.359 687.464 412.223 687.464 424.756 687.464 437.289 665.54 445.046 666.437 411.78Z" fill="#EBE0D8" transform="matrix(1.00017 0 0 1 160 0.10844)"/><path d="M749.889 524.664C730.885 524.664 715.426 508.352 715.426 488.307 715.426 482.704 719.968 478.162 725.571 478.162 731.174 478.162 735.716 482.704 735.716 488.307 735.716 497.166 742.077 504.374 749.889 504.374 757.7 504.374 764.061 495.54 764.061 488.307 764.061 481.073 761.898 476.746 750.816 475.889 729.32 474.234 715.431 461.422 715.431 443.251 715.431 421.84 729.604 406.889 749.894 406.889 768.892 406.889 784.351 423.201 784.351 443.251 784.351 448.854 779.82 453.391 774.211 453.391 768.603 453.391 764.061 448.849 764.061 443.251 764.061 434.387 757.705 427.179 749.889 427.179 740.88 427.179 735.716 433.041 735.716 443.251 735.716 452.444 744.774 455.076 752.371 455.659 772.696 457.234 784.346 469.129 784.346 488.302 784.346 507.475 768.244 524.659 749.889 524.659Z" fill="#000030" transform="matrix(1.00017 0 0 1 160 0.10844)"/><path d="M578.828 488.985C578.828 488.985 567.566 494.214 558 489.035 546.783 482.953 549.515 499.21 557.526 506.657 565.966 514.494 572.516 517.306 585.807 515.705 585.807 515.705 578.454 507.226 578.828 488.985Z" fill="#EF508F" transform="matrix(1.00017 0 0 1 160 0.10844)"/><path d="M556.474 494.264C558.757 492.923 559.62 497.475 562.421 496.463 563.538 496.064 563.279 493.257 562.74 492.579 561.958 491.582 559.535 491.208 558.224 490.934 552.092 489.658 551.539 495.276 554.306 497.4 555.357 498.202 555.407 494.887 556.474 494.264Z" fill="#FFFFFF" transform="matrix(1.00017 0 0 1 160 0.10844)"/><path d="M578.828 488.985C578.828 488.985 577.342 489.673 574.999 490.301 574.864 492.46 574.864 494.613 575.228 496.647 575.951 500.815 577.99 505.446 573.847 508.681 568.982 512.485 563.992 511.448 559.719 508.607 567.172 514.953 573.688 517.161 585.812 515.705 585.812 515.705 578.459 507.226 578.833 488.985Z" fill="#CAA9B9" transform="matrix(1.00017 0 0 1 160 0.10844)"/><path d="M633.809 457.648C638.904 453.396 638.535 441.9 636.705 445.38 634.871 448.869 628.071 453.276 629.726 449.971 631.381 446.671 628.071 446.671 625.14 450.155 622.198 453.645 618.893 455.111 619.631 451.626 620.364 448.136 617.981 440.429 616.695 446.85 615.409 453.276 603.838 457.13 603.838 457.13 604.033 457.085 604.227 457.05 604.416 457.01 588.324 462.404 576.784 476.956 576.784 494.075 576.784 515.785 595.333 533.388 618.225 533.388 641.117 533.388 659.672 515.79 659.672 494.075 659.672 477.589 648.974 463.486 633.804 457.648Z" fill="#FFCD28" transform="matrix(1.00017 0 0 1 160 0.10844)"/><path d="M724.828 527.266C720.242 536.633 696.831 541.952 680.031 531.488 661.656 520.038 647.992 514.599 631.561 517.54 590.917 524.803 580.802 541.778 580.802 573.259 580.802 609.606 614.87 625.309 656.167 625.309 693.621 625.309 712.35 613.559 727.954 597.033 734.504 590.089 744.295 575.552 746.309 564.356 753.234 525.985 731.448 513.756 724.828 527.266Z" fill="#FFCD28" transform="matrix(1.00017 0 0 1 160 0.10844)"/><path d="M736.244 522.894C738.996 528.811 740.412 535.312 740.671 542.137 741.055 552.257 737.451 564.799 731.563 573.07 727.241 579.142 722.645 585.463 716.912 590.368 711.368 595.099 705.501 600.468 698.741 603.529 693.761 605.787 688.147 608.619 682.614 610.01 676.901 611.451 670.809 612.044 665.051 612.647 651.003 614.133 636.69 612.467 622.802 610.518 609.521 608.654 598.08 601.919 586.325 595.947 597.587 616.241 624.786 625.309 656.157 625.309 693.611 625.309 712.34 613.559 727.944 597.033 734.494 590.089 744.285 575.552 746.299 564.356 750.646 540.247 743.667 526.463 736.234 522.899Z" fill="#FCDCCD" transform="matrix(1.00017 0 0 1 160 0.10844)"/><path d="M700.53 551.544C695.286 554.615 681.911 558.852 672.12 552.75 661.397 546.075 650.19 543.577 640.544 544.879 622.303 547.331 613.44 559.769 613.44 578.13 613.44 599.327 634.118 607.467 658.196 607.467 701.762 607.467 711.807 579.65 712.988 573.12 717.021 550.741 708.601 546.813 700.525 551.549Z" fill="#FEDBA6" transform="matrix(1.00017 0 0 1 160 0.10844)"/><path d="M708.372 550.103C708.422 550.936 708.452 551.768 708.452 552.606 708.452 563.767 703.955 576.704 695.341 584.251 690.914 588.125 686.228 592.307 680.779 594.775 675.904 596.984 669.597 600.234 663.825 601.027 657.867 601.844 651.491 603.24 645.335 602.971 639.198 602.707 633.061 601.68 627.009 600.717 626.83 600.668 626.655 600.613 626.481 600.558 634.686 605.369 646.003 607.462 658.196 607.462 701.762 607.462 711.807 579.645 712.988 573.115 715.645 558.344 712.879 551.614 708.367 550.103Z" fill="#EBE0D8" transform="matrix(1.00017 0 0 1 160 0.10844)"/><path d="M653.615 473.596C654.049 476.068 654.293 478.601 654.293 481.183 654.293 505.581 633.939 525.94 609.531 525.94 601.201 525.94 593.344 523.562 586.609 519.459 594.207 527.974 605.548 533.383 618.235 533.383 641.132 533.383 659.682 515.785 659.682 494.07 659.682 486.567 657.464 479.558 653.62 473.591Z" fill="#FCDCCD" transform="matrix(1.00017 0 0 1 160 0.10844)"/><path d="M592.826 487.111C592.826 492.001 596.789 495.969 601.685 495.969 606.58 495.969 610.538 492.006 610.538 487.111 610.538 482.215 606.57 478.252 601.685 478.252 596.799 478.252 592.826 482.215 592.826 487.111Z" fill="#242E63" transform="matrix(1.00017 0 0 1 160 0.10844)"/><path d="M595.657 488.701C595.657 490.994 597.517 492.853 599.81 492.853 602.103 492.853 603.963 490.994 603.963 488.701 603.963 486.408 602.108 484.553 599.81 484.553 597.512 484.553 595.657 486.408 595.657 488.701Z" fill="#FEDBA6" transform="matrix(1.00017 0 0 1 160 0.10844)"/><path d="M602.378 482.335C602.378 483.402 603.24 484.269 604.312 484.269 605.384 484.269 606.251 483.402 606.251 482.335 606.251 481.268 605.389 480.396 604.312 480.396 603.235 480.396 602.378 481.263 602.378 482.335Z" fill="#FEDBA6" transform="matrix(1.00017 0 0 1 160 0.10844)"/><path d="M605.693 485.171C605.693 485.764 606.171 486.238 606.764 486.238 607.358 486.238 607.836 485.76 607.836 485.171 607.836 484.583 607.358 484.094 606.764 484.094 606.171 484.094 605.693 484.578 605.693 485.171Z" fill="#FEDBA6" transform="matrix(1.00017 0 0 1 160 0.10844)"/><path d="M602.188 536.813C602.188 536.813 585.109 547.366 588.419 564.625 591.355 579.974 596.679 578.394 598.335 573.713 599.985 569.027 599.985 563.523 604.945 558.842 609.9 554.161 612.378 554.435 610.728 546.723 609.073 539.011 610.085 532.127 602.193 536.808Z" fill="#EBE0D8" transform="matrix(1.00017 0 0 1 160 0.10844)"/><path d="M616.735 458.85C616.735 458.85 596.739 457.07 589.047 472.868 582.203 486.921 587.417 488.845 591.54 486.089 595.662 483.327 598.968 478.92 605.737 478.142 612.517 477.36 614.332 479.069 617.632 471.901 620.927 464.742 625.858 459.832 616.735 458.85Z" fill="#EBE0D8" transform="matrix(1.00017 0 0 1 160 0.10844)"/><path d="M304.23 525.147 304.23 497.121C304.23 495.132 302.834 493.521 301.114 493.521L138.797 493.521C137.077 493.521 135.681 495.132 135.681 497.121L135.681 525.147 304.23 525.147Z" fill="#FFCD28" transform="matrix(1.00017 0 0 1 160 0.10844)"/><path d="M301.119 493.521 297.176 493.521C297.57 498.178 298.317 517.615 287.495 517.615L137.905 517.615C137.137 517.615 136.409 517.51 135.686 517.321L135.686 525.147 304.235 525.147 304.235 497.121C304.235 495.132 302.839 493.521 301.119 493.521Z" fill="#FCDCCD" transform="matrix(1.00017 0 0 1 160 0.10844)"/><path d="M310.411 560.422 310.411 526.842C310.411 524.793 308.746 523.133 306.707 523.133L113.437 523.133C111.389 523.133 109.728 524.793 109.728 526.842L109.728 560.422 310.411 560.422Z" fill="#AB459A" transform="matrix(1.00017 0 0 1 160 0.10844)"/><path d="M306.707 523.133 299.514 523.133C299.439 525.137 299.344 527.141 299.19 529.14 298.846 533.627 298.676 538.298 296.488 542.351 292.754 549.256 285.226 551.838 277.818 552.227 271.402 552.561 109.728 551.26 109.863 551.289 109.908 551.299 109.773 551.265 109.733 551.26L109.733 560.422 310.416 560.422 310.416 526.842C310.416 524.793 308.751 523.133 306.712 523.133Z" fill="#AB8EA5" transform="matrix(1.00017 0 0 1 160 0.10844)"/><path d="M77.7985 558.712 77.7985 566.749C77.7985 600.204 104.913 627.323 138.373 627.323L265.694 627.323C299.15 627.323 326.274 600.204 326.274 566.749L326.274 558.712 77.7985 558.712Z" fill="#141A49" transform="matrix(1.00017 0 0 1 160 0.10844)"/><path d="M307.016 558.712C306.508 561.105 303.567 595.608 273.122 605.742 262.703 609.212 247.504 609.377 236.586 609.312 226.636 609.247 95.8298 609.87 95.8298 609.87 106.777 620.668 121.793 627.328 138.373 627.328L265.694 627.328C299.15 627.328 326.274 600.209 326.274 566.753L326.274 558.717 307.016 558.717Z" fill="#34779D" transform="matrix(1.00017 0 0 1 160 0.10844)"/><path d="M109.574 534.47 282.036 534.47 282.036 546.728 109.574 546.728Z" fill="#7AD0E7" transform="matrix(1.00017 0 0 1 160 0.10844)"/><path d="M139.709 582.322C139.709 589.007 134.29 594.426 127.6 594.426 120.91 594.426 115.501 589.007 115.501 582.322 115.501 575.637 120.92 570.213 127.6 570.213 134.28 570.213 139.709 575.637 139.709 582.322Z" fill="#00A2CE" transform="matrix(1.00017 0 0 1 160 0.10844)"/><path d="M136.04 582.322C136.04 586.983 132.266 590.757 127.6 590.757 122.934 590.757 119.17 586.983 119.17 582.322 119.17 577.661 122.944 573.887 127.6 573.887 132.256 573.887 136.04 577.661 136.04 582.322Z" fill="#7AD0E7" transform="matrix(1.00017 0 0 1 160 0.10844)"/><path d="M178.03 582.322C178.03 589.007 172.611 594.426 165.926 594.426 159.241 594.426 153.817 589.007 153.817 582.322 153.817 575.637 159.236 570.213 165.926 570.213 172.616 570.213 178.03 575.637 178.03 582.322Z" fill="#00A2CE" transform="matrix(1.00017 0 0 1 160 0.10844)"/><path d="M174.361 582.322C174.361 586.983 170.577 590.757 165.926 590.757 161.275 590.757 157.491 586.983 157.491 582.322 157.491 577.661 161.265 573.887 165.926 573.887 170.587 573.887 174.361 577.661 174.361 582.322Z" fill="#7AD0E7" transform="matrix(1.00017 0 0 1 160 0.10844)"/><path d="M216.356 582.322C216.356 589.007 210.937 594.426 204.252 594.426 197.567 594.426 192.143 589.007 192.143 582.322 192.143 575.637 197.562 570.213 204.252 570.213 210.942 570.213 216.356 575.637 216.356 582.322Z" fill="#00A2CE" transform="matrix(1.00017 0 0 1 160 0.10844)"/><path d="M212.682 582.322C212.682 586.983 208.908 590.757 204.252 590.757 199.596 590.757 195.812 586.983 195.812 582.322 195.812 577.661 199.591 573.887 204.252 573.887 208.913 573.887 212.682 577.661 212.682 582.322Z" fill="#7AD0E7" transform="matrix(1.00017 0 0 1 160 0.10844)"/><path d="M254.682 582.322C254.682 589.007 249.258 594.426 242.573 594.426 235.888 594.426 230.474 589.007 230.474 582.322 230.474 575.637 235.893 570.213 242.573 570.213 249.253 570.213 254.682 575.637 254.682 582.322Z" fill="#00A2CE" transform="matrix(1.00017 0 0 1 160 0.10844)"/><path d="M251.008 582.322C251.008 586.983 247.234 590.757 242.568 590.757 237.902 590.757 234.138 586.983 234.138 582.322 234.138 577.661 237.912 573.887 242.568 573.887 247.224 573.887 251.008 577.661 251.008 582.322Z" fill="#7AD0E7" transform="matrix(1.00017 0 0 1 160 0.10844)"/><path d="M292.998 582.322C292.998 589.007 287.584 594.426 280.894 594.426 274.204 594.426 268.795 589.007 268.795 582.322 268.795 575.637 274.209 570.213 280.894 570.213 287.579 570.213 292.998 575.637 292.998 582.322Z" fill="#00A2CE" transform="matrix(1.00017 0 0 1 160 0.10844)"/><path d="M289.334 582.322C289.334 586.983 285.56 590.757 280.894 590.757 276.228 590.757 272.464 586.983 272.464 582.322 272.464 577.661 276.238 573.887 280.894 573.887 285.55 573.887 289.334 577.661 289.334 582.322Z" fill="#7AD0E7" transform="matrix(1.00017 0 0 1 160 0.10844)"/><path d="M167.526 512.744C167.526 514.015 166.495 515.047 165.223 515.047L149.326 515.047C148.049 515.047 147.027 514.015 147.027 512.744L147.027 501.827C147.027 500.556 148.049 499.524 149.326 499.524L165.223 499.524C166.495 499.524 167.526 500.556 167.526 501.827L167.526 512.744Z" fill="#00A2CE" transform="matrix(1.00017 0 0 1 160 0.10844)"/><path d="M164.68 511.154C164.68 512.051 163.932 512.789 163.025 512.789L151.524 512.789C150.612 512.789 149.864 512.056 149.864 511.154L149.864 503.417C149.864 502.52 150.612 501.787 151.524 501.787L163.025 501.787C163.932 501.787 164.68 502.515 164.68 503.417L164.68 511.154Z" fill="#7AD0E7" transform="matrix(1.00017 0 0 1 160 0.10844)"/><path d="M198.066 512.744C198.066 514.015 197.039 515.047 195.767 515.047L179.865 515.047C178.599 515.047 177.562 514.015 177.562 512.744L177.562 501.827C177.562 500.556 178.599 499.524 179.865 499.524L195.767 499.524C197.034 499.524 198.066 500.556 198.066 501.827L198.066 512.744Z" fill="#00A2CE" transform="matrix(1.00017 0 0 1 160 0.10844)"/><path d="M195.229 511.154C195.229 512.051 194.481 512.789 193.564 512.789L182.073 512.789C181.151 512.789 180.408 512.056 180.408 511.154L180.408 503.417C180.408 502.52 181.151 501.787 182.073 501.787L193.564 501.787C194.481 501.787 195.229 502.515 195.229 503.417L195.229 511.154Z" fill="#7AD0E7" transform="matrix(1.00017 0 0 1 160 0.10844)"/><path d="M228.62 512.744C228.62 514.015 227.588 515.047 226.312 515.047L210.414 515.047C209.143 515.047 208.116 514.015 208.116 512.744L208.116 501.827C208.116 500.556 209.143 499.524 210.414 499.524L226.312 499.524C227.588 499.524 228.62 500.556 228.62 501.827L228.62 512.744Z" fill="#00A2CE" transform="matrix(1.00017 0 0 1 160 0.10844)"/><path d="M225.768 511.154C225.768 512.051 225.025 512.789 224.113 512.789L212.617 512.789C211.7 512.789 210.957 512.056 210.957 511.154L210.957 503.417C210.957 502.52 211.705 501.787 212.617 501.787L224.113 501.787C225.03 501.787 225.768 502.515 225.768 503.417L225.768 511.154Z" fill="#7AD0E7" transform="matrix(1.00017 0 0 1 160 0.10844)"/><path d="M259.159 512.744C259.159 514.015 258.132 515.047 256.871 515.047L240.963 515.047C239.692 515.047 238.665 514.015 238.665 512.744L238.665 501.827C238.665 500.556 239.692 499.524 240.963 499.524L256.871 499.524C258.132 499.524 259.159 500.556 259.159 501.827L259.159 512.744Z" fill="#00A2CE" transform="matrix(1.00017 0 0 1 160 0.10844)"/><path d="M256.317 511.154C256.317 512.051 255.574 512.789 254.657 512.789L243.166 512.789C242.249 512.789 241.506 512.056 241.506 511.154L241.506 503.417C241.506 502.52 242.249 501.787 243.166 501.787L254.657 501.787C255.574 501.787 256.317 502.515 256.317 503.417L256.317 511.154Z" fill="#7AD0E7" transform="matrix(1.00017 0 0 1 160 0.10844)"/><path d="M289.708 512.744C289.708 514.015 288.681 515.047 287.41 515.047L271.502 515.047C270.236 515.047 269.209 514.015 269.209 512.744L269.209 501.827C269.209 500.556 270.236 499.524 271.502 499.524L287.41 499.524C288.681 499.524 289.708 500.556 289.708 501.827L289.708 512.744Z" fill="#00A2CE" transform="matrix(1.00017 0 0 1 160 0.10844)"/><path d="M286.861 511.154C286.861 512.051 286.119 512.789 285.206 512.789L273.711 512.789C272.798 512.789 272.045 512.056 272.045 511.154L272.045 503.417C272.045 502.52 272.793 501.787 273.711 501.787L285.206 501.787C286.114 501.787 286.861 502.515 286.861 503.417L286.861 511.154Z" fill="#7AD0E7" transform="matrix(1.00017 0 0 1 160 0.10844)"/><path d="M87.8336 585.872C87.8336 585.872 81.0388 564.55 103.597 565.472 126.155 566.4 124.001 570.727 137.286 566.096 150.572 561.454 148.099 578.15 141 579.072 133.887 579.999 109.778 576.913 103.602 580.926 97.4201 584.944 94.0202 595.144 87.8386 585.872Z" fill="#B3E4FA" fill-opacity="0.2" transform="matrix(1.00017 0 0 1 160 0.10844)"/><path d="M115.506 541.823C115.506 541.823 110.546 526.269 127.012 526.947 143.468 527.625 141.888 530.781 151.584 527.396 161.285 524.016 159.475 536.189 154.291 536.867 149.106 537.545 131.524 535.292 127.012 538.218 122.5 541.15 120.018 548.588 115.506 541.823Z" fill="#FFFFFF" fill-opacity="0.3" transform="matrix(1.00017 0 0 1 160 0.10844)"/><path d="M140.362 508.228C140.362 508.228 136.703 496.737 148.857 497.24 161.006 497.739 159.844 500.067 167.003 497.574 174.157 495.077 172.831 504.065 169.007 504.564 165.173 505.062 152.187 503.397 148.862 505.561 145.532 507.724 143.697 513.218 140.367 508.223Z" fill="#CCECFC" fill-opacity="0.4" transform="matrix(1.00017 0 0 1 160 0.10844)"/><path d="M254.682 459.004 272.394 459.004 272.394 493.492 254.682 493.492Z" fill="#7AD0E7" transform="matrix(1.00017 0 0 1 160 0.10844)"/><path d="M254.682 488.865 272.394 488.865 272.394 493.487 254.682 493.487Z" fill="#141A49" transform="matrix(1.00017 0 0 1 160 0.10844)"/><path d="M254.682 477.534 272.394 477.534 272.394 482.155 254.682 482.155Z" fill="#141A49" transform="matrix(1.00017 0 0 1 160 0.10844)"/><path d="M254.682 466.198 272.394 466.198 272.394 470.819 254.682 470.819Z" fill="#141A49" transform="matrix(1.00017 0 0 1 160 0.10844)"/><path d="M224.602 459.079 242.324 459.079 242.324 493.566 224.602 493.566Z" fill="#7AD0E7" transform="matrix(1.00017 0 0 1 160 0.10844)"/><path d="M224.602 488.94 242.324 488.94 242.324 493.566 224.602 493.566Z" fill="#141A49" transform="matrix(1.00017 0 0 1 160 0.10844)"/><path d="M224.602 477.609 242.324 477.609 242.324 482.235 224.602 482.235Z" fill="#141A49" transform="matrix(1.00017 0 0 1 160 0.10844)"/><path d="M224.602 466.273 242.324 466.273 242.324 470.904 224.602 470.904Z" fill="#141A49" transform="matrix(1.00017 0 0 1 160 0.10844)"/><path d="M263.85 459.004 272.394 459.004 272.394 493.492 263.85 493.492Z" fill="#B4C9DE" transform="matrix(1.00017 0 0 1 160 0.10844)"/><path d="M233.56 459.079 242.319 459.079 242.319 493.566 233.56 493.566Z" fill="#B4C9DE" transform="matrix(1.00017 0 0 1 160 0.10844)"/><path d="M244.094 459.996C244.094 460.679 243.545 461.233 242.857 461.233L224.008 461.233C223.325 461.233 222.777 460.679 222.777 459.996L222.777 457.319C222.777 456.636 223.325 456.083 224.008 456.083L242.857 456.083C243.545 456.083 244.094 456.636 244.094 457.319L244.094 459.996Z" fill="#141A49" transform="matrix(1.00017 0 0 1 160 0.10844)"/><path d="M274.284 460.201C274.284 460.884 273.725 461.437 273.047 461.437L254.199 461.437C253.516 461.437 252.967 460.884 252.967 460.201L252.967 457.524C252.967 456.841 253.521 456.287 254.199 456.287L273.047 456.287C273.73 456.287 274.284 456.841 274.284 457.524L274.284 460.201Z" fill="#141A49" transform="matrix(1.00017 0 0 1 160 0.10844)"/><path d="M834.577 518.213 834.577 502.978C834.577 502.006 833.789 501.214 832.812 501.214L803.305 501.214C802.332 501.214 801.54 502.006 801.54 502.978L801.54 518.213 834.572 518.213Z" fill="#242E63" transform="matrix(1.00017 0 0 1 160 0.10844)"/><path d="M875.789 518.213 875.789 502.978C875.789 502.006 875.001 501.214 874.024 501.214L844.517 501.214C843.545 501.214 842.752 502.006 842.752 502.978L842.752 518.213 875.784 518.213Z" fill="#242E63" transform="matrix(1.00017 0 0 1 160 0.10844)"/><path d="M801.545 513.397 834.577 513.397 834.577 518.213 801.545 518.213Z" fill="#7BB0C8" transform="matrix(1.00017 0 0 1 160 0.10844)"/><path d="M842.757 513.397 875.789 513.397 875.789 518.213 842.757 518.213Z" fill="#7BB0C8" transform="matrix(1.00017 0 0 1 160 0.10844)"/><path d="M886.976 571.185C886.976 573.483 885.086 575.343 882.758 575.343L794.576 575.343C792.242 575.343 790.358 573.483 790.358 571.185L790.358 521.025C790.358 518.726 792.247 516.867 794.576 516.867L882.758 516.867C885.091 516.867 886.976 518.726 886.976 521.025L886.976 571.185Z" fill="#242E63" transform="matrix(1.00017 0 0 1 160 0.10844)"/><path d="M882.758 516.862 873.62 516.862C873.62 516.862 871.227 537.196 865.43 546.364 862.892 550.387 855.489 556.414 850.574 558.339 840.135 562.426 830.753 562.302 819.691 562.556 809.91 562.78 800.134 562.347 790.358 562.167L790.358 571.18C790.358 573.479 792.247 575.338 794.576 575.338L882.758 575.338C885.091 575.338 886.976 573.479 886.976 571.18L886.976 521.02C886.976 518.721 885.086 516.862 882.758 516.862Z" fill="#7BB0C8" transform="matrix(1.00017 0 0 1 160 0.10844)"/><path d="M795.448 529.13C796.081 525.656 798.579 520.476 807.961 521.678 817.343 522.874 817.542 524.469 824.93 523.472 832.318 522.475 828.724 532.456 824.133 535.053 819.541 537.65 810.159 536.05 808.36 542.241 806.565 548.433 797.273 552.87 796.181 544.739 795.244 537.785 794.72 533.138 795.448 529.135Z" fill="#FDFEFF" fill-opacity="0.2" transform="matrix(1.00017 0 0 1 160 0.10844)"/><path d="M834.577 460.29 834.577 445.061C834.577 444.084 833.789 443.296 832.812 443.296L803.305 443.296C802.332 443.296 801.54 444.089 801.54 445.061L801.54 460.29 834.572 460.29Z" fill="#FFCD28" transform="matrix(1.00017 0 0 1 160 0.10844)"/><path d="M875.789 460.29 875.789 445.061C875.789 444.084 875.001 443.296 874.024 443.296L844.517 443.296C843.545 443.296 842.752 444.089 842.752 445.061L842.752 460.29 875.784 460.29Z" fill="#FFCD28" transform="matrix(1.00017 0 0 1 160 0.10844)"/><path d="M801.545 455.485 834.577 455.485 834.577 460.295 801.545 460.295Z" fill="#FDEDE3" transform="matrix(1.00017 0 0 1 160 0.10844)"/><path d="M842.757 455.485 875.789 455.485 875.789 460.295 842.757 460.295Z" fill="#FDEDE3" transform="matrix(1.00017 0 0 1 160 0.10844)"/><path d="M886.976 512.689C886.976 514.983 885.086 516.842 882.758 516.842L794.576 516.842C792.242 516.842 790.358 514.983 790.358 512.689L790.358 462.524C790.358 460.225 792.247 458.371 794.576 458.371L882.758 458.371C885.091 458.371 886.976 460.23 886.976 462.524L886.976 512.689Z" fill="#FFCD28" transform="matrix(1.00017 0 0 1 160 0.10844)"/><path d="M882.758 458.366 873.62 458.366C873.62 458.366 871.227 478.701 865.43 487.868 862.892 491.896 855.489 497.918 850.574 499.843 840.135 503.93 830.753 503.806 819.691 504.06 809.91 504.284 800.134 503.851 790.358 503.676L790.358 512.689C790.358 514.983 792.247 516.842 794.576 516.842L882.758 516.842C885.091 516.842 886.976 514.983 886.976 512.689L886.976 462.524C886.976 460.225 885.086 458.371 882.758 458.371Z" fill="#FDEDE3" transform="matrix(1.00017 0 0 1 160 0.10844)"/><path d="M795.448 470.635C796.081 467.165 798.579 461.985 807.961 463.182 817.343 464.378 817.542 465.978 824.93 464.981 832.318 463.984 828.724 473.965 824.133 476.562 819.541 479.159 810.159 477.559 808.36 483.75 806.565 489.937 797.273 494.379 796.181 486.243 795.244 479.289 794.72 474.643 795.448 470.635Z" fill="#FDFEFF" transform="matrix(1.00017 0 0 1 160 0.10844)"/><path d="M834.577 402.427 834.577 387.188C834.577 386.216 833.789 385.423 832.812 385.423L803.305 385.423C802.332 385.423 801.54 386.216 801.54 387.188L801.54 402.427 834.572 402.427Z" fill="#EF508F" transform="matrix(1.00017 0 0 1 160 0.10844)"/><path d="M875.789 402.427 875.789 387.188C875.789 386.216 875.001 385.423 874.024 385.423L844.517 385.423C843.545 385.423 842.752 386.216 842.752 387.188L842.752 402.427 875.784 402.427Z" fill="#EF508F" transform="matrix(1.00017 0 0 1 160 0.10844)"/><path d="M801.545 397.612 834.577 397.612 834.577 402.427 801.545 402.427Z" fill="#E0BCCE" transform="matrix(1.00017 0 0 1 160 0.10844)"/><path d="M842.757 397.612 875.789 397.612 875.789 402.427 842.757 402.427Z" fill="#E0BCCE" transform="matrix(1.00017 0 0 1 160 0.10844)"/><path d="M886.976 454.822C886.976 457.12 885.086 458.979 882.758 458.979L794.576 458.979C792.242 458.979 790.358 457.12 790.358 454.822L790.358 404.661C790.358 402.363 792.247 400.503 794.576 400.503L882.758 400.503C885.091 400.503 886.976 402.363 886.976 404.661L886.976 454.822Z" fill="#EF508F" transform="matrix(1.00017 0 0 1 160 0.10844)"/><path d="M882.758 400.498 873.62 400.498C873.62 400.498 871.227 420.833 865.43 430.005 862.892 434.028 855.489 440.056 850.574 441.98 840.135 446.063 830.753 445.943 819.691 446.192 809.91 446.417 800.134 445.983 790.358 445.808L790.358 454.822C790.358 457.12 792.247 458.979 794.576 458.979L882.758 458.979C885.091 458.979 886.976 457.12 886.976 454.822L886.976 404.661C886.976 402.363 885.086 400.503 882.758 400.503Z" fill="#E0BCCE" transform="matrix(1.00017 0 0 1 160 0.10844)"/><path d="M795.448 412.767C796.081 409.297 798.579 404.117 807.961 405.314 817.343 406.51 817.542 408.111 824.93 407.109 832.318 406.112 828.724 416.092 824.133 418.689 819.541 421.286 810.159 419.686 808.36 425.878 806.565 432.069 797.273 436.506 796.181 428.375 795.244 421.421 794.72 416.775 795.448 412.767Z" fill="#FDFEFF" transform="matrix(1.00017 0 0 1 160 0.10844)"/><path d="M212.682 207.577 219.367 200.882C220.638 199.611 220.633 197.542 219.367 196.271 218.096 195 216.027 195 214.756 196.271L208.076 202.966 201.376 196.281C200.105 195.01 198.041 195.01 196.764 196.281 195.493 197.552 195.498 199.621 196.769 200.892L203.465 207.577 196.779 214.272C195.508 215.549 195.508 217.612 196.784 218.884 197.423 219.517 198.255 219.836 199.088 219.836 199.92 219.836 200.753 219.517 201.391 218.879L208.076 212.184 214.771 218.869C215.409 219.502 216.242 219.821 217.074 219.821 217.907 219.821 218.744 219.502 219.382 218.864 220.653 217.593 220.648 215.529 219.377 214.252L212.682 207.567Z" fill="#FFFFFF" transform="matrix(1.00017 0 0 1 160 0.10844)"/><path d="M725.352 303.96 734.305 294.987C736.01 293.282 736.005 290.516 734.305 288.811 732.595 287.106 729.828 287.111 728.128 288.816L719.175 297.789 710.202 288.836C708.497 287.126 705.73 287.131 704.025 288.836 702.32 290.545 702.325 293.307 704.03 295.012L713.003 303.965 704.05 312.939C702.345 314.649 702.345 317.41 704.05 319.115 704.902 319.968 706.019 320.392 707.141 320.392 708.262 320.392 709.374 319.963 710.232 319.11L719.185 310.137 728.158 319.095C729.011 319.943 730.127 320.372 731.244 320.372 732.361 320.372 733.482 319.943 734.335 319.09 736.04 317.386 736.035 314.619 734.335 312.914L725.362 303.956Z" fill="#FFFFFF" transform="matrix(1.00017 0 0 1 160 0.10844)"/><path d="M378.454 44.5474 384.212 38.7796C385.308 37.6829 385.308 35.9032 384.212 34.8064 383.115 33.7097 381.335 33.7097 380.239 34.8064L374.481 40.5743 368.708 34.8164C367.611 33.7197 365.831 33.7197 364.74 34.8164 363.643 35.9131 363.643 37.6928 364.74 38.7896L370.512 44.5474 364.75 50.3153C363.653 51.412 363.653 53.1917 364.75 54.2885 365.298 54.8368 366.016 55.111 366.734 55.111 367.452 55.111 368.169 54.8368 368.723 54.2835L374.481 48.5156 380.249 54.2735C380.797 54.8219 381.515 55.0911 382.233 55.0911 382.95 55.0911 383.668 54.8169 384.217 54.2685 385.313 53.1718 385.313 51.3921 384.217 50.2953L378.449 44.5375Z" fill="#FFFFFF" transform="matrix(1.00017 0 0 1 160 0.10844)"/><path d="M57.3793 241.232 66.3376 232.259C68.0425 230.554 68.0375 227.787 66.3326 226.082 64.6277 224.377 61.8559 224.382 60.156 226.092L51.2026 235.061 42.2293 226.107C40.5194 224.402 37.7576 224.407 36.0527 226.112 34.3478 227.817 34.3528 230.584 36.0527 232.289L45.026 241.242 36.0677 250.215C34.3627 251.92 34.3627 254.687 36.0727 256.392 36.9251 257.245 38.0418 257.668 39.1635 257.668 40.2851 257.668 41.3968 257.24 42.2543 256.387L51.2126 247.414 60.1809 256.372C61.0334 257.225 62.155 257.648 63.2717 257.648 64.3884 257.648 65.5101 257.22 66.3625 256.367 68.0675 254.662 68.0625 251.895 66.3575 250.191L57.3842 241.232Z" fill="#FFFFFF" transform="matrix(1.00017 0 0 1 160 0.10844)"/><path d="M857.399 269.907 863.201 264.094C864.303 262.987 864.303 261.198 863.201 260.091 862.1 258.989 860.3 258.989 859.203 260.091L853.401 265.904 847.588 260.101C846.481 258.994 844.686 258.999 843.585 260.101 842.483 261.208 842.483 262.997 843.59 264.104L849.402 269.907 843.6 275.72C842.498 276.826 842.498 278.621 843.605 279.723 844.153 280.276 844.881 280.55 845.604 280.55 846.327 280.55 847.054 280.271 847.608 279.718L853.411 273.905 859.223 279.708C859.777 280.261 860.499 280.535 861.222 280.535 861.945 280.535 862.673 280.256 863.226 279.703 864.333 278.596 864.328 276.806 863.226 275.7L857.414 269.897Z" fill="#FFFFFF" transform="matrix(1.00017 0 0 1 160 0.10844)"/><path d="M236.915 93.1329C236.915 99.464 231.78 104.599 225.449 104.599 219.118 104.599 213.983 99.464 213.983 93.1329 213.983 86.8017 219.118 81.667 225.449 81.667 231.78 81.667 236.915 86.8017 236.915 93.1329Z" fill="#FFFFFF" transform="matrix(1.00017 0 0 1 160 0.10844)"/><path d="M209.731 73.2321C209.731 76.617 206.989 79.3588 203.604 79.3588 200.219 79.3588 197.477 76.617 197.477 73.2321 197.477 69.8472 200.219 67.1053 203.604 67.1053 206.989 67.1053 209.731 69.8472 209.731 73.2321Z" fill="#FFFFFF" transform="matrix(1.00017 0 0 1 160 0.10844)"/><path d="M39.4376 438.719C39.4376 445.056 34.3029 450.19 27.9718 450.19 21.6406 450.19 16.5059 445.056 16.5059 438.719 16.5059 432.383 21.6406 427.254 27.9718 427.254 34.3029 427.254 39.4376 432.388 39.4376 438.719Z" fill="#FFFFFF" transform="matrix(1.00017 0 0 1 160 0.10844)"/><path d="M12.2535 418.819C12.2535 422.204 9.5117 424.945 6.12677 424.945 2.74184 424.945 0 422.199 0 418.819 0 415.439 2.74683 412.692 6.12677 412.692 9.50671 412.692 12.2535 415.434 12.2535 418.819Z" fill="#FFFFFF" transform="matrix(1.00017 0 0 1 160 0.10844)"/><path d="M849.547 163.145C849.547 169.481 844.412 174.615 838.081 174.615 831.75 174.615 826.615 169.481 826.615 163.145 826.615 156.808 831.75 151.679 838.081 151.679 844.412 151.679 849.547 156.813 849.547 163.145Z" fill="#FFFFFF" transform="matrix(1.00017 0 0 1 160 0.10844)"/><path d="M822.368 143.244C822.368 146.629 819.626 149.376 816.241 149.376 812.856 149.376 810.114 146.629 810.114 143.244 810.114 139.859 812.856 137.117 816.241 137.117 819.626 137.117 822.368 139.859 822.368 143.244Z" fill="#FFFFFF" transform="matrix(1.00017 0 0 1 160 0.10844)"/><path d="M444.717 172.322C444.717 178.658 439.582 183.793 433.251 183.793 426.92 183.793 421.785 178.658 421.785 172.322 421.785 165.986 426.92 160.856 433.251 160.856 439.582 160.856 444.717 165.991 444.717 172.322Z" fill="#FFFFFF" transform="matrix(1.00017 0 0 1 160 0.10844)"/><path d="M417.533 152.421C417.533 155.806 414.791 158.553 411.406 158.553 408.021 158.553 405.279 155.806 405.279 152.421 405.279 149.036 408.026 146.295 411.406 146.295 414.786 146.295 417.533 149.036 417.533 152.421Z" fill="#FFFFFF" transform="matrix(1.00017 0 0 1 160 0.10844)"/><path d="M613.474 19.0732C613.474 28.6298 605.728 36.3768 596.171 36.3768 586.614 36.3768 578.867 28.6298 578.867 19.0732 578.867 9.51668 586.614 1.77472 596.171 1.77472 605.728 1.77472 613.474 9.52167 613.474 19.0732Z" fill="#FFFFFF" transform="matrix(1.00017 0 0 1 160 0.10844)"/><path d="M445.494 340.876C445.494 348.383 439.407 354.465 431.905 354.465 424.402 354.465 418.315 348.383 418.315 340.876 418.315 333.368 424.402 327.291 431.905 327.291 439.407 327.291 445.494 333.373 445.494 340.876Z" fill="#FFFFFF" transform="matrix(1.00017 0 0 1 160 0.10844)"/><path d="M959.834 436.925C959.834 444.428 953.747 450.514 946.249 450.514 938.752 450.514 932.655 444.428 932.655 436.925 932.655 429.422 938.742 423.34 946.249 423.34 953.757 423.34 959.834 429.422 959.834 436.925Z" fill="#FFFFFF" transform="matrix(1.00017 0 0 1 160 0.10844)"/><path d="M693.242 94.0302C693.242 101.533 687.155 107.62 679.653 107.62 672.15 107.62 666.063 101.538 666.063 94.0302 666.063 86.5225 672.15 80.4456 679.653 80.4456 687.155 80.4456 693.242 86.5275 693.242 94.0302Z" fill="#FFFFFF" transform="matrix(1.00017 0 0 1 160 0.10844)"/><path d="M103.622 326.065C103.622 332.396 98.4869 337.531 92.1508 337.531 85.8146 337.531 80.6849 332.396 80.6849 326.065 80.6849 319.734 85.8196 314.599 92.1508 314.599 98.4819 314.599 103.622 319.734 103.622 326.065Z" fill="#FFFFFF" transform="matrix(1.00017 0 0 1 160 0.10844)"/></g></svg>