<svg width="287" height="237" xmlns="http://www.w3.org/2000/svg" xmlns:xlink="http://www.w3.org/1999/xlink" xml:space="preserve" overflow="hidden"><defs><clipPath id="clip0"><rect x="496" y="241" width="287" height="237"/></clipPath></defs><g clip-path="url(#clip0)" transform="translate(-496 -241)"><path d="M609.08 466.022C547.312 466.022 497.063 415.773 497.063 354.015 497.063 292.257 547.312 241.998 609.08 241.998 670.848 241.998 721.087 292.247 721.087 354.015 721.087 415.783 670.838 466.022 609.08 466.022Z" fill="#39C6F4"/><path d="M609.08 242.996C670.389 242.996 720.089 292.696 720.089 354.015 720.089 415.334 670.389 465.024 609.08 465.024 547.771 465.024 498.062 415.324 498.062 354.015 498.062 292.706 547.771 242.996 609.08 242.996M609.08 241C578.895 241 550.516 252.759 529.165 274.1 507.824 295.441 496.065 323.83 496.065 354.015 496.065 384.2 507.824 412.579 529.165 433.92 550.506 455.261 578.895 467.02 609.08 467.02 639.265 467.02 667.644 455.261 688.985 433.92 710.326 412.579 722.085 384.2 722.085 354.015 722.085 323.83 710.326 295.451 688.985 274.1 667.644 252.759 639.265 241 609.08 241L609.08 241Z" fill="#424566"/><path d="M609.08 466.022C597.481 466.022 586.022 464.245 575.002 460.731L574.473 460.562 574.333 460.023C573.674 457.427 573.335 454.762 572.976 451.937 572.606 449.023 572.217 446.018 571.458 443.083 570.77 440.438 569.831 437.703 568.913 435.048 566.487 427.991 563.972 420.694 565.29 413.138 566.487 406.23 571.419 401.03 576.19 395.999 579.324 392.695 582.568 389.271 584.585 385.478 587.469 380.068 589.685 369.736 585.293 364.745 583.557 362.759 581.271 361.541 578.845 360.244 578.426 360.014 578.007 359.794 577.587 359.565 571.718 356.351 567.845 352.228 565.01 346.179 564.441 344.971 563.902 343.734 563.363 342.486 560.638 336.237 557.823 329.779 551.385 326.884 547.941 325.337 544.288 324.339 540.764 323.371 535.783 322.003 530.633 320.596 525.841 317.611 519.303 313.528 514.781 306.95 512.396 298.056L512.286 297.657 512.495 297.298C532.569 263.19 569.582 241.998 609.08 241.998 629.593 241.998 649.657 247.598 667.105 258.179L668.143 258.808 667.325 259.706C666.127 261.014 664.769 262.301 663.462 263.549 661.625 265.296 659.718 267.103 658.141 269.059 655.885 271.854 655.157 275.108 654.398 278.542 653.779 281.327 653.14 284.202 651.633 286.857 648.918 291.618 644.466 294.193 640.463 296.09 638.677 296.939 636.78 297.707 634.943 298.456 627.996 301.271 621.428 303.936 618.603 311.013 617.505 313.758 616.886 316.773 616.277 319.687 615.598 322.961 614.9 326.345 613.522 329.479 612.364 332.125 610.937 334.75 609.559 337.295 605.786 344.263 601.873 351.47 603.111 359.605 603.969 365.294 608.531 370.824 614.72 373.679 616.497 374.498 618.403 375.137 620.26 375.746 622.087 376.354 623.983 376.983 625.8 377.802 631.539 380.387 634.993 385.428 638.337 390.299 640.264 393.114 642.49 395.619 644.646 398.045 648.529 402.427 652.551 406.959 654.697 413.058 658.62 424.258 652.132 435.437 643.967 441.546 641.471 443.413 638.946 445 636.5 446.537 629.104 451.179 622.715 455.181 620.709 464.714L620.559 465.433 619.831 465.503C616.187 465.852 612.584 466.022 609.12 466.022Z" fill="#AED693"/><path d="M609.08 242.996C630.132 242.996 649.816 248.856 666.586 259.037 663.761 262.132 660.128 265.006 657.353 268.44 653.03 273.79 653.999 280.668 650.755 286.368 648.309 290.65 644.366 293.135 640.024 295.192 631.739 299.125 621.448 301.151 617.665 310.644 615.309 316.563 615.149 323.261 612.594 329.08 608.242 338.982 600.366 348.265 602.103 359.755 603.101 366.383 608.441 371.893 614.281 374.588 617.864 376.245 621.767 377.083 625.371 378.71 630.881 381.196 634.245 386.127 637.539 390.918 642.889 398.714 650.485 404.134 653.729 413.377 657.353 423.699 651.563 434.589 643.338 440.738 633.306 448.244 622.476 451.318 619.701 464.495 616.207 464.824 612.664 465.014 609.08 465.014 597.302 465.014 585.962 463.167 575.311 459.763 573.974 454.493 573.934 448.593 572.427 442.814 569.931 433.241 564.511 423.449 566.278 413.297 568.204 402.188 580.322 395.59 585.473 385.937 588.478 380.297 590.813 369.497 586.052 364.077 583.876 361.591 580.921 360.244 578.066 358.676 572.377 355.562 568.654 351.589 565.919 345.74 562.435 338.293 559.889 329.599 551.794 325.956 543.419 322.193 534.406 321.753 526.37 316.743 519.323 312.351 515.41 305.423 513.364 297.777 532.649 265.016 568.284 242.996 609.08 242.996M609.08 241C589.037 241 569.352 246.32 552.154 256.382 535.464 266.144 521.449 280.119 511.637 296.789L511.218 297.507 511.437 298.316C513.883 307.469 518.554 314.237 525.312 318.459 530.223 321.524 535.444 322.951 540.505 324.339 544.158 325.337 547.612 326.285 550.986 327.802 557.075 330.538 559.69 336.547 562.465 342.895 563.004 344.123 563.553 345.391 564.122 346.608 567.046 352.857 571.059 357.129 577.128 360.453 577.547 360.683 577.977 360.912 578.396 361.132 580.732 362.38 582.948 363.568 584.565 365.414 588.468 369.856 586.581 379.658 583.726 385.029 581.77 388.702 578.715 391.916 575.491 395.33 570.62 400.471 565.589 405.781 564.331 412.988 562.974 420.794 565.529 428.22 567.995 435.387 568.943 438.142 569.831 440.738 570.51 443.343 571.259 446.218 571.638 449.192 572.007 452.067 572.357 454.802 572.716 457.617 573.395 460.272L573.664 461.35 574.723 461.69C585.832 465.233 597.401 467.03 609.1 467.03 612.594 467.03 616.237 466.85 619.911 466.501L621.368 466.361 621.667 464.924C623.584 455.81 629.813 451.907 637.01 447.386 639.475 445.838 642.02 444.241 644.546 442.355 653.01 436.026 659.718 424.407 655.626 412.728 653.42 406.44 649.337 401.838 645.384 397.386 643.258 394.981 641.052 392.505 639.196 389.8L639.156 389.74C635.732 384.759 632.198 379.599 626.209 376.893 624.352 376.055 622.426 375.416 620.569 374.797 618.663 374.168 616.856 373.569 615.139 372.771 609.24 370.046 604.908 364.815 604.099 359.445 602.921 351.639 606.575 344.892 610.438 337.754 611.825 335.199 613.263 332.544 614.44 329.869 615.858 326.645 616.577 323.201 617.265 319.877 617.884 316.872 618.473 314.037 619.541 311.372 622.206 304.694 628.575 302.109 635.333 299.374 637.179 298.625 639.096 297.847 640.912 296.988 645.055 295.022 649.667 292.347 652.521 287.346 654.109 284.561 654.767 281.606 655.396 278.751 656.135 275.428 656.824 272.293 658.94 269.678 660.477 267.771 662.354 265.995 664.17 264.268 665.498 263.01 666.865 261.712 668.083 260.375L669.72 258.578 667.644 257.32C650.016 246.65 629.773 241 609.08 241L609.08 241Z" fill="#424566"/><path d="M606.305 252.389C571.429 252.389 540.964 271.215 524.464 299.244" stroke="#FFFFFF" stroke-width="1.99638" stroke-linecap="round" stroke-linejoin="round" fill="none"/><path d="M711.644 396.947C700.115 394.382 690.492 389.69 683.036 382.982 678.215 378.65 674.961 372.841 671.806 367.221 671.357 366.412 670.908 365.614 670.459 364.825 669.66 363.428 668.682 361.941 667.654 360.373 663.811 354.544 659.459 347.936 661.385 341.288 662.064 338.932 663.491 336.756 664.869 334.65 665.508 333.682 666.107 332.754 666.616 331.845 667.903 329.549 668.413 327.024 668.952 324.339 669.111 323.53 669.261 322.782 669.411 322.033 670.928 314.297 672.355 306.99 678.285 300.901 682.757 296.31 688.636 293.525 694.316 290.83 695.843 290.101 697.42 289.352 698.947 288.584L699.716 288.194 700.215 288.893C713.89 307.978 721.117 330.488 721.117 354.005 721.117 368.608 718.322 382.853 712.812 396.338L712.493 397.117 711.674 396.937Z" fill="#AED693"/><path d="M699.376 289.472C712.403 307.659 720.089 329.929 720.089 354.005 720.089 368.858 717.144 383.022 711.854 395.959 701.522 393.663 691.581 389.311 683.695 382.224 678.315 377.383 674.851 370.515 671.317 364.316 667.574 357.748 660.038 349.483 662.334 341.558 663.272 338.303 665.817 335.259 667.474 332.324 668.852 329.879 669.381 327.194 669.93 324.479 671.627 316.034 672.705 308.038 678.983 301.59 684.523 295.91 692.239 293.086 699.376 289.472M700.005 286.917 698.478 287.685C696.971 288.454 695.394 289.193 693.876 289.921 688.117 292.656 682.158 295.471 677.566 300.193 671.427 306.491 669.97 313.938 668.423 321.833 668.273 322.582 668.133 323.331 667.973 324.089 667.444 326.744 666.945 329.2 665.737 331.356 665.238 332.234 664.649 333.143 664.031 334.101 662.613 336.267 661.156 338.513 660.427 341.009 658.371 348.096 662.863 354.903 666.815 360.922 667.844 362.48 668.812 363.947 669.59 365.324 670.04 366.113 670.489 366.912 670.938 367.72 674.132 373.41 677.426 379.289 682.367 383.731 689.953 390.549 699.726 395.33 711.424 397.925L713.072 398.295 713.71 396.737C719.27 383.132 722.095 368.758 722.095 354.025 722.095 330.298 714.798 307.579 701.013 288.324L700.015 286.937 700.015 286.937Z" fill="#424566"/><path d="M715.128 477.002C710.766 477.002 694.306 467.559 678.394 449.512 664.679 433.96 648.319 408.356 648.319 374.727 648.319 337.894 678.285 307.919 715.128 307.919 751.971 307.919 781.937 337.884 781.937 374.727 781.937 441.406 725.998 477.002 715.128 477.002Z" fill="#F26B56"/><path d="M715.128 308.927C751.472 308.927 780.938 338.393 780.938 374.737 780.938 440.548 725.419 476.014 715.128 476.014 706.913 476.014 649.317 437.374 649.317 374.737 649.317 338.393 678.784 308.927 715.128 308.927M715.128 306.93C677.736 306.93 647.321 337.345 647.321 374.737 647.321 408.676 663.811 434.499 677.646 450.18 692.629 467.17 709.857 478.01 715.128 478.01 721.107 478.01 738.166 468.527 753.388 451.378 766.864 436.186 782.935 410.562 782.935 374.737 782.935 338.912 752.52 306.93 715.128 306.93L715.128 306.93Z" fill="#424566"/><path d="M715.128 308.927C713.91 308.927 712.702 308.967 711.504 309.027 745.453 309.955 772.673 336.407 772.673 368.928 772.673 428.869 719.51 461.181 709.658 461.181 703.439 461.181 667.734 439.19 653.01 401.838 665.847 448.314 708.17 476.004 715.128 476.004 725.419 476.004 780.938 440.538 780.938 374.727 780.938 338.383 751.472 308.917 715.128 308.917Z" fill="#F15D4B"/><path d="M715.128 426.663C685.222 426.663 660.896 402.327 660.896 372.422 660.896 342.516 685.222 318.19 715.128 318.19 745.034 318.19 769.369 342.516 769.369 372.422 769.369 402.327 745.044 426.663 715.128 426.663Z" fill="#CDCDC8"/><path d="M715.128 319.178C744.534 319.178 768.371 343.015 768.371 372.412 768.371 401.808 744.534 425.655 715.128 425.655 685.721 425.655 661.894 401.818 661.894 372.412 661.894 343.005 685.731 319.178 715.128 319.178M715.128 317.182C684.673 317.182 659.898 341.957 659.898 372.412 659.898 402.866 684.673 427.651 715.128 427.651 745.583 427.651 770.368 402.876 770.368 372.412 770.368 341.947 745.593 317.182 715.128 317.182L715.128 317.182Z" fill="#424566"/><path d="M673.443 353.666C680.6 337.784 696.581 326.724 715.128 326.724" stroke="#FFFFFF" stroke-width="1.99638" stroke-linecap="round" stroke-linejoin="round" fill="none"/><path d="M738.905 324.788C749.296 334.5 755.794 348.325 755.794 363.667 755.794 393.074 731.957 416.911 702.551 416.911 694.006 416.911 685.931 414.885 678.774 411.301 688.286 420.205 701.063 425.665 715.118 425.665 744.524 425.665 768.361 401.828 768.361 372.422 768.361 351.569 756.363 333.532 738.905 324.788Z" fill="#AFB0AC"/></g></svg>