<svg width="51" height="54" xmlns="http://www.w3.org/2000/svg" xmlns:xlink="http://www.w3.org/1999/xlink" xml:space="preserve" overflow="hidden"><defs><clipPath id="clip0"><rect x="614" y="333" width="51" height="54"/></clipPath></defs><g clip-path="url(#clip0)" transform="translate(-614 -333)"><path d="M658.714 333 620.286 333C616.908 333 614.169 335.738 614.169 339.117L614.169 380.873C614.169 384.252 616.908 386.99 620.286 386.99L658.704 386.99C662.082 386.99 664.821 384.252 664.821 380.873L664.821 339.117C664.821 335.738 662.082 333 658.704 333ZM618.816 349.611C618.816 344.404 623.034 340.166 628.261 340.166L656.006 340.166 656.006 345.363 628.251 345.363C625.913 345.363 624.004 347.262 624.004 349.611 624.004 350.79 624.473 351.84 625.253 352.609 626.022 353.379 627.082 353.858 628.251 353.858L650.899 353.858 652.278 359.056 628.251 359.056C623.024 359.056 618.807 354.828 618.807 349.611ZM648.61 347.862 648.61 348.491 625.583 348.491C625.653 348.281 625.753 348.052 625.863 347.862L648.59 347.862ZM626.472 347.052C626.682 346.812 626.952 346.612 627.242 346.443L648.89 346.443 648.89 347.052 626.462 347.052ZM648.47 349.321 648.47 349.931 625.433 349.931C625.403 349.831 625.403 349.731 625.403 349.651 625.403 349.521 625.403 349.421 625.433 349.321L648.46 349.321ZM648.8 350.75 648.8 351.35 625.843 351.35C625.743 351.17 625.663 350.97 625.583 350.75L648.78 350.75ZM649.08 352.159 649.08 352.789 627.172 352.789C626.902 352.619 626.632 352.409 626.422 352.159L649.07 352.159ZM651.009 379.194 623.254 379.194 623.254 373.997 650.999 373.997C653.337 373.997 655.246 372.098 655.246 369.75 655.246 368.59 654.776 367.521 653.997 366.751 653.227 365.972 652.168 365.502 650.999 365.502L628.351 365.502 626.972 360.305 650.999 360.305C656.226 360.305 660.443 364.522 660.443 369.75 660.443 374.977 656.226 379.194 650.999 379.194ZM630.68 371.499 630.68 370.869 653.677 370.869C653.607 371.079 653.507 371.299 653.397 371.499L630.68 371.499ZM652.798 372.298C652.588 372.558 652.328 372.748 652.028 372.928L630.38 372.928 630.38 372.298 652.798 372.298ZM630.8 370.039 630.8 369.43 653.827 369.43C653.857 369.53 653.857 369.63 653.857 369.71 653.857 369.84 653.857 369.939 653.827 370.039L630.8 370.039ZM630.47 368.61 630.47 368.001 653.417 368.001C653.517 368.2 653.597 368.4 653.677 368.61L630.48 368.61ZM630.19 367.201 630.19 366.571 652.088 366.571C652.358 366.741 652.628 366.951 652.838 367.201L630.19 367.201Z" fill="#815B5B"/></g></svg>