<svg width="211" height="217" xmlns="http://www.w3.org/2000/svg" xmlns:xlink="http://www.w3.org/1999/xlink" xml:space="preserve" overflow="hidden"><defs><clipPath id="clip0"><rect x="170" y="43" width="211" height="217"/></clipPath></defs><g clip-path="url(#clip0)" transform="translate(-170 -43)"><path d="M256.949 236.984C251.797 239.045 247.424 243.127 247.184 246.079L247.084 247.37C246.854 250.321 250.846 251.042 255.999 248.98L347.731 212.25 348.682 200.253 256.949 236.984Z" fill="#FFFFFF"/><path d="M281.734 83.2562 184.398 122.218C180.186 123.909 176.734 123.729 175.753 121.988 200.157 165.153 224.551 208.317 248.955 251.482 249.935 253.223 253.387 253.403 257.6 251.712L354.925 212.75 281.734 83.2562Z" stroke="#213D8B" stroke-width="1.00057" stroke-linecap="round" stroke-linejoin="round" fill="#A0CEF6"/><path d="M256.949 236.984C251.797 239.045 247.424 243.127 247.184 246.079L247.084 247.37C246.854 250.321 250.846 251.042 255.999 248.98L347.731 212.25 348.682 200.253 256.949 236.984Z" fill="#FFFFFF"/><path d="M249.185 249.971 347.881 210.459" stroke="#BCD1E0" stroke-width="0.250142" stroke-linecap="round" stroke-linejoin="round" fill="none"/><path d="M247.804 249.281 347.981 209.178" stroke="#BCD1E0" stroke-width="0.250142" stroke-linecap="round" stroke-linejoin="round" fill="none"/><path d="M247.174 248.29 348.081 207.887" stroke="#BCD1E0" stroke-width="0.250142" stroke-linecap="round" stroke-linejoin="round" fill="none"/><path d="M247.114 247.069 348.181 206.606" stroke="#BCD1E0" stroke-width="0.250142" stroke-linecap="round" stroke-linejoin="round" fill="none"/><path d="M247.234 245.769 348.281 205.316" stroke="#BCD1E0" stroke-width="0.250142" stroke-linecap="round" stroke-linejoin="round" fill="none"/><path d="M256.949 236.984C251.797 239.045 247.424 243.127 247.184 246.079L247.084 247.37C246.854 250.321 250.846 251.042 255.999 248.98L347.731 212.25 348.682 200.253 256.949 236.984Z" stroke="#213D8B" stroke-width="1.00057" stroke-linecap="round" stroke-linejoin="round" fill="none"/><path d="M356.106 197.911 355.886 200.763 350.293 203.004 258.56 239.725C253.407 241.786 249.035 245.869 248.805 248.82L248.705 250.111C248.475 253.063 252.467 253.783 257.62 251.722L354.945 212.76 354.725 215.611 257.4 254.574C249.505 257.735 243.382 256.625 243.732 252.102L243.832 250.811C244.192 246.289 250.896 240.035 258.79 236.884L356.116 197.921Z" stroke="#213D8B" stroke-width="1.00057" stroke-linecap="round" stroke-linejoin="round" fill="#D4EEFF"/><path d="M170.51 122.599C170.45 123.419 170.59 124.129 170.931 124.72 195.334 167.884 219.728 211.049 244.132 254.213 243.802 253.623 243.652 252.913 243.712 252.092L243.812 250.801C244.172 246.279 250.876 240.025 258.77 236.874L356.096 197.911 282.904 68.4077 185.569 107.38C177.674 110.542 170.971 116.785 170.61 121.308" stroke="#213D8B" stroke-width="1.00057" stroke-linecap="round" stroke-linejoin="round" fill="#FFFFFF"/><path d="M259.001 198.562 319.205 174.458" stroke="#213D8B" stroke-width="1.00057" stroke-linecap="round" stroke-linejoin="round" fill="none"/><path d="M272.688 205.156 318.344 186.875" stroke="#213D8B" stroke-width="1.00057" stroke-linecap="round" stroke-linejoin="round" fill="none"/><path d="M256.579 237.834 183.388 108.35" stroke="#213D8B" stroke-width="1.00057" stroke-linecap="round" stroke-linejoin="round" fill="none"/><path d="M281.774 254.834C275.13 250.621 277.291 243.017 271.148 237.844L259.081 242.467C265.224 247.64 263.063 255.254 269.707 259.456L272.638 253.603 281.774 254.834Z" stroke="#213D8B" stroke-width="1.00057" stroke-linecap="round" stroke-linejoin="round" fill="#29A2FF"/><path d="M1.1649-15.1006 4.42232-15.1006C4.59489-15.1006 4.72433-15.0287 4.81062-14.8849L9.18979-7.55029C9.21855-7.50715 9.24731-7.48917 9.27608-7.49636 9.30484-7.50355 9.31922-7.53591 9.31922-7.59344L9.29765-14.777C9.29765-14.8777 9.32641-14.9568 9.38394-15.0143 9.44146-15.0718 9.52056-15.1006 9.62123-15.1006L13.0296-15.1006C13.1303-15.1006 13.2094-15.0718 13.2669-15.0143 13.3245-14.9568 13.3532-14.8777 13.3532-14.777L13.3532-0.323584C13.3532-0.222914 13.3245-0.143815 13.2669-0.086289 13.2094-0.0287629 13.1303 0 13.0296 0L9.77224 0C9.59966 0 9.47023-0.0719076 9.38394-0.215723L4.98319-7.55029C4.95443-7.59344 4.92567-7.61141 4.8969-7.60422 4.86814-7.59703 4.85376-7.56467 4.85376-7.50715L4.8969-0.323584C4.8969-0.222914 4.86814-0.143815 4.81062-0.086289 4.75309-0.0287629 4.67399 0 4.57332 0L1.1649 0C1.06423 0 0.985134-0.0287629 0.927608-0.086289 0.870082-0.143815 0.841319-0.222914 0.841319-0.323584L0.841319-14.777C0.841319-14.8777 0.870082-14.9568 0.927608-15.0143 0.985134-15.0718 1.06423-15.1006 1.1649-15.1006Z" stroke="#213D8B" stroke-width="0.735418" stroke-linecap="round" stroke-linejoin="round" fill="#D4EEFF" fill-rule="evenodd" transform="matrix(0.931119 -0.364714 0.478476 0.897518 222.23 137.477)"/><text fill="#000000" fill-opacity="0" font-family="Arial,Arial_MSFontService,sans-serif" font-size="15.1006" x="0.841319" y="-1.88757">N</text><path d="M6.6874-11.8C6.09776-11.8 5.61958-11.6023 5.25285-11.2068 4.88612-10.8113 4.70275-10.2828 4.70275-9.62123L4.70275-5.39307C4.70275-4.73152 4.88612-4.203 5.25285-3.80751 5.61958-3.41201 6.09776-3.21427 6.6874-3.21427 7.29143-3.21427 7.7768-3.41201 8.14353-3.80751 8.51026-4.203 8.69362-4.73152 8.69362-5.39307L8.69362-9.62123C8.69362-10.2828 8.51026-10.8113 8.14353-11.2068 7.7768-11.6023 7.29143-11.8 6.6874-11.8ZM6.6874-15.2732C7.89545-15.2732 8.95609-15.0359 9.86931-14.5613 10.7825-14.0867 11.4908-13.418 11.9942-12.5551 12.4975-11.6922 12.7492-10.6998 12.7492-9.57809L12.7492-5.5225C12.7492-4.37198 12.4975-3.36168 11.9942-2.4916 11.4908-1.62152 10.7825-0.945584 9.86931-0.463804 8.95609 0.0179768 7.89545 0.258867 6.6874 0.258867 5.49374 0.258867 4.44029 0.0179768 3.52707-0.463804 2.61384-0.945584 1.90555-1.62152 1.4022-2.4916 0.898845-3.36168 0.647168-4.37198 0.647168-5.5225L0.647168-9.57809C0.647168-10.6998 0.898845-11.6922 1.4022-12.5551 1.90555-13.418 2.61384-14.0867 3.52707-14.5613 4.44029-15.0359 5.49374-15.2732 6.6874-15.2732Z" stroke="#213D8B" stroke-width="0.735418" stroke-linecap="round" stroke-linejoin="round" fill="#D4EEFF" fill-rule="evenodd" transform="matrix(0.931119 -0.364714 0.478476 0.897518 236.464 131.902)"/><text fill="#000000" fill-opacity="0" font-family="Arial,Arial_MSFontService,sans-serif" font-size="15.532" x="0.647168" y="-1.68264">O</text><path d="M14.8927-15.1006 25.1827-15.1006C25.2833-15.1006 25.3624-15.0718 25.42-15.0143 25.4775-14.9568 25.5063-14.8777 25.5063-14.777L25.5063-11.951C25.5063-11.8504 25.4775-11.7713 25.42-11.7137 25.3624-11.6562 25.2833-11.6275 25.1827-11.6275L18.7326-11.6275C18.6607-11.6275 18.6247-11.5915 18.6247-11.5196L18.6247-9.4918C18.6247-9.41989 18.6607-9.38394 18.7326-9.38394L22.7234-9.38394C22.8241-9.38394 22.9032-9.35517 22.9607-9.29765 23.0183-9.24012 23.047-9.16102 23.047-9.06035L23.047-6.25596C23.047-6.15529 23.0183-6.07619 22.9607-6.01866 22.9032-5.96114 22.8241-5.93237 22.7234-5.93237L18.7326-5.93237C18.6607-5.93237 18.6247-5.89642 18.6247-5.82451L18.6247-3.581C18.6247-3.50909 18.6607-3.47314 18.7326-3.47314L25.1827-3.47314C25.2833-3.47314 25.3624-3.44437 25.42-3.38685 25.4775-3.32932 25.5063-3.25022 25.5063-3.14955L25.5063-0.323584C25.5063-0.222913 25.4775-0.143815 25.42-0.0862891 25.3624-0.028763 25.2833 0 25.1827 0L14.8927 0C14.792 0 14.7129-0.028763 14.6554-0.0862891 14.5979-0.143815 14.5691-0.222913 14.5691-0.323584L14.5691-14.777C14.5691-14.8777 14.5979-14.9568 14.6554-15.0143 14.7129-15.0718 14.792-15.1006 14.8927-15.1006ZM0.711885-15.1006 12.1236-15.1006C12.2243-15.1006 12.3034-15.0718 12.3609-15.0143 12.4184-14.9568 12.4472-14.8777 12.4472-14.777L12.4472-11.9295C12.4472-11.8288 12.4184-11.7497 12.3609-11.6922 12.3034-11.6346 12.2243-11.6059 12.1236-11.6059L8.49947-11.6059C8.42757-11.6059 8.39161-11.5699 8.39161-11.498L8.39161-0.323584C8.39161-0.222913 8.36285-0.143815 8.30532-0.0862891 8.2478-0.028763 8.1687 0 8.06803 0L4.65961 0C4.55894 0 4.47984-0.028763 4.42232-0.0862891 4.36479-0.143815 4.33603-0.222913 4.33603-0.323584L4.33603-11.498C4.33603-11.5699 4.30007-11.6059 4.22817-11.6059L0.711885-11.6059C0.611215-11.6059 0.532117-11.6346 0.47459-11.6922 0.417064-11.7497 0.388302-11.8288 0.388302-11.9295L0.388302-14.777C0.388302-14.8777 0.417064-14.9568 0.47459-15.0143 0.532117-15.0718 0.611215-15.1006 0.711885-15.1006ZM33.7763-15.2732C34.898-15.2732 35.9155-15.0646 36.8288-14.6476 37.742-14.2305 38.4611-13.6409 38.986-12.8786 39.5109-12.1164 39.7734-11.2463 39.7734-10.2684L39.7734-10.0742C39.7734-9.97358 39.7446-9.89448 39.6871-9.83695 39.6296-9.77943 39.5505-9.75067 39.4498-9.75067L36.1061-9.75067C36.0054-9.75067 35.9263-9.77943 35.8688-9.83695 35.8113-9.89448 35.7825-9.97358 35.7825-10.0742L35.7825-10.0958C35.7825-10.5273 35.5884-10.9192 35.2001-11.2715 34.8118-11.6239 34.2868-11.8 33.6253-11.8 33.1651-11.8 32.8019-11.7066 32.5359-11.5196 32.2698-11.3326 32.1368-11.0738 32.1368-10.743 32.1368-10.4841 32.2339-10.2648 32.428-10.085 32.6222-9.90527 32.9206-9.73269 33.3233-9.5673 33.726-9.40191 34.3444-9.18979 35.1785-8.93092 35.2935-8.88777 35.8005-8.73317 36.6993-8.46712 37.5982-8.20106 38.3496-7.71928 38.9536-7.02177 39.5577-6.32427 39.8597-5.47936 39.8597-4.48703 39.8597-3.52347 39.6152-2.69294 39.1262-1.99543 38.6372-1.29793 37.9541-0.76222 37.0768-0.388301 36.1996-0.0143815 35.1785 0.172578 34.0136 0.172578 32.8055 0.172578 31.7485-0.0251677 30.8425-0.420659 29.9364-0.816151 29.2353-1.38063 28.7392-2.11408 28.243-2.84754 27.9949-3.69605 27.9949-4.65961L27.9949-4.96162C27.9949-5.06229 28.0237-5.14139 28.0812-5.19892 28.1387-5.25644 28.2178-5.28521 28.3185-5.28521L31.6622-5.28521C31.7629-5.28521 31.842-5.25644 31.8995-5.19892 31.957-5.14139 31.9858-5.06229 31.9858-4.96162L31.9858-4.83219C31.9858-4.42951 32.1979-4.07356 32.6222-3.76436 33.0464-3.45516 33.6109-3.30056 34.3156-3.30056 34.8477-3.30056 35.2288-3.41201 35.4589-3.63493 35.689-3.85784 35.8041-4.10592 35.8041-4.37917 35.8041-4.69556 35.6603-4.93286 35.3726-5.09105 35.085-5.24925 34.5601-5.4434 33.7979-5.67351L33.1723-5.84608C31.7485-6.27753 30.5548-6.85279 29.5913-7.57187 28.6277-8.29094 28.1459-9.3336 28.1459-10.6998 28.1459-11.6059 28.3904-12.4076 28.8794-13.1052 29.3684-13.8027 30.0407-14.3384 30.8964-14.7123 31.7521-15.0862 32.7121-15.2732 33.7763-15.2732Z" stroke="#213D8B" stroke-width="0.735418" stroke-linecap="round" stroke-linejoin="round" fill="#D4EEFF" fill-rule="evenodd" transform="matrix(0.931119 -0.364714 0.478476 0.897518 250.825 126.276)"/><text fill="#000000" fill-opacity="0" font-family="Arial,Arial_MSFontService,sans-serif" font-size="15.4457" x="0.388302" y="-1.75814">TES</text><path d="M329.261 162.361 372.625 66.9269 374.646 70.7091 331.272 166.133 329.261 162.361Z" stroke="#213D8B" stroke-width="1.00057" stroke-linecap="round" stroke-linejoin="round" fill="#29A2FF"/><path d="M318.965 156.988 362.329 61.5538 372.625 66.9269 329.261 162.361 318.965 156.988Z" stroke="#213D8B" stroke-width="1.00057" stroke-linecap="round" stroke-linejoin="round" fill="#42ADFF"/><path d="M310.69 155.387 354.055 59.9529 362.329 61.5538 318.965 156.988 310.69 155.387Z" stroke="#213D8B" stroke-width="1.00057" stroke-linecap="round" stroke-linejoin="round" fill="#63BBFF"/><path d="M322.997 164.542 312.701 159.169 310.69 155.387 318.965 156.988 329.261 162.361 331.272 166.133 322.997 164.542Z" fill="#7EA5C4"/><path d="M379.469 59.6628C382.081 53.9495 379.569 47.1857 373.846 44.5742 368.133 41.9627 361.379 44.4741 358.757 50.1874L351.563 65.9063 372.265 75.3817 379.459 59.6628Z" stroke="#213D8B" stroke-width="1.00057" stroke-linecap="round" stroke-linejoin="round" fill="#FA676A"/><path d="M365.821 81.8554 372.625 66.9269 374.636 70.699 367.842 85.6275 365.821 81.8554Z" stroke="#213D8B" stroke-width="1.00057" stroke-linecap="round" stroke-linejoin="round" fill="#B3D2E8"/><path d="M355.526 76.4723 362.329 61.5438 372.625 66.9269 365.821 81.8554 355.526 76.4723Z" stroke="#213D8B" stroke-width="1.00057" stroke-linecap="round" stroke-linejoin="round" fill="#D4EEFF"/><path d="M347.251 74.8814 354.055 59.9529 362.329 61.5438 355.526 76.4723 347.251 74.8814Z" stroke="#213D8B" stroke-width="1.00057" stroke-linecap="round" stroke-linejoin="round" fill="#FFFFFF"/><path d="M329.181 161.581C329.181 160.33 328.19 157.799 325.538 159.099 325.709 153.976 320.055 151.525 317.034 153.916 316.093 152.626 312.951 151.955 310.69 155.387L309.669 172.897C313.382 173.117 316.874 174.748 319.425 177.43L331.282 166.133 331.542 165.553C332.512 162.962 330.381 161.201 329.181 161.571Z" stroke="#213D8B" stroke-width="1.00057" stroke-linecap="round" stroke-linejoin="round" fill="#FFFFFF"/><path d="M309.659 172.897 308.809 187.515 319.415 177.42C316.874 174.748 313.382 173.107 309.659 172.887Z" stroke="#213D8B" stroke-width="1.00057" stroke-linecap="round" stroke-linejoin="round" fill="#7494AD"/></g></svg>