<svg width="123" height="163" xmlns="http://www.w3.org/2000/svg" xmlns:xlink="http://www.w3.org/1999/xlink" xml:space="preserve" overflow="hidden"><defs><clipPath id="clip0"><rect x="578" y="278" width="123" height="163"/></clipPath><linearGradient x1="640.045" y1="278.055" x2="640.045" y2="440.945" gradientUnits="userSpaceOnUse" spreadMethod="pad" id="fill1"><stop offset="0" stop-color="#1EA8E8"/><stop offset="1" stop-color="#006CAC"/></linearGradient><linearGradient x1="637.443" y1="254.908" x2="658.299" y2="354.832" gradientUnits="userSpaceOnUse" spreadMethod="pad" id="fill2"><stop offset="0" stop-color="#1EA8E8"/><stop offset="1" stop-color="#006CAC"/></linearGradient><linearGradient x1="588.378" y1="294.077" x2="595.923" y2="294.077" gradientUnits="userSpaceOnUse" spreadMethod="pad" id="fill3"><stop offset="0" stop-color="#1E4C7D"/><stop offset="1" stop-color="#001041"/></linearGradient><linearGradient x1="588.378" y1="308.147" x2="595.923" y2="308.147" gradientUnits="userSpaceOnUse" spreadMethod="pad" id="fill4"><stop offset="0" stop-color="#1E4C7D"/><stop offset="1" stop-color="#001041"/></linearGradient><linearGradient x1="588.378" y1="322.218" x2="595.923" y2="322.218" gradientUnits="userSpaceOnUse" spreadMethod="pad" id="fill5"><stop offset="0" stop-color="#1E4C7D"/><stop offset="1" stop-color="#001041"/></linearGradient><linearGradient x1="588.378" y1="336.298" x2="595.923" y2="336.298" gradientUnits="userSpaceOnUse" spreadMethod="pad" id="fill6"><stop offset="0" stop-color="#1E4C7D"/><stop offset="1" stop-color="#001041"/></linearGradient><linearGradient x1="588.378" y1="350.368" x2="595.923" y2="350.368" gradientUnits="userSpaceOnUse" spreadMethod="pad" id="fill7"><stop offset="0" stop-color="#1E4C7D"/><stop offset="1" stop-color="#001041"/></linearGradient><linearGradient x1="588.378" y1="364.439" x2="595.923" y2="364.439" gradientUnits="userSpaceOnUse" spreadMethod="pad" id="fill8"><stop offset="0" stop-color="#1E4C7D"/><stop offset="1" stop-color="#001041"/></linearGradient><linearGradient x1="588.378" y1="378.509" x2="595.923" y2="378.509" gradientUnits="userSpaceOnUse" spreadMethod="pad" id="fill9"><stop offset="0" stop-color="#1E4C7D"/><stop offset="1" stop-color="#001041"/></linearGradient><linearGradient x1="588.378" y1="392.579" x2="595.923" y2="392.579" gradientUnits="userSpaceOnUse" spreadMethod="pad" id="fill10"><stop offset="0" stop-color="#1E4C7D"/><stop offset="1" stop-color="#001041"/></linearGradient><linearGradient x1="588.378" y1="406.65" x2="595.923" y2="406.65" gradientUnits="userSpaceOnUse" spreadMethod="pad" id="fill11"><stop offset="0" stop-color="#1E4C7D"/><stop offset="1" stop-color="#001041"/></linearGradient><linearGradient x1="588.378" y1="420.73" x2="595.923" y2="420.73" gradientUnits="userSpaceOnUse" spreadMethod="pad" id="fill12"><stop offset="0" stop-color="#1E4C7D"/><stop offset="1" stop-color="#001041"/></linearGradient><linearGradient x1="578" y1="294.077" x2="593.151" y2="294.077" gradientUnits="userSpaceOnUse" spreadMethod="pad" id="stroke13"><stop offset="0" stop-color="#C2D8E8"/><stop offset="1" stop-color="#869CAC"/></linearGradient><linearGradient x1="578" y1="308.147" x2="593.151" y2="308.147" gradientUnits="userSpaceOnUse" spreadMethod="pad" id="stroke14"><stop offset="0" stop-color="#C2D8E8"/><stop offset="1" stop-color="#869CAC"/></linearGradient><linearGradient x1="578" y1="322.218" x2="593.151" y2="322.218" gradientUnits="userSpaceOnUse" spreadMethod="pad" id="stroke15"><stop offset="0" stop-color="#C2D8E8"/><stop offset="1" stop-color="#869CAC"/></linearGradient><linearGradient x1="578" y1="336.298" x2="593.151" y2="336.298" gradientUnits="userSpaceOnUse" spreadMethod="pad" id="stroke16"><stop offset="0" stop-color="#C2D8E8"/><stop offset="1" stop-color="#869CAC"/></linearGradient><linearGradient x1="578" y1="350.368" x2="593.151" y2="350.368" gradientUnits="userSpaceOnUse" spreadMethod="pad" id="stroke17"><stop offset="0" stop-color="#C2D8E8"/><stop offset="1" stop-color="#869CAC"/></linearGradient><linearGradient x1="578" y1="364.439" x2="593.151" y2="364.439" gradientUnits="userSpaceOnUse" spreadMethod="pad" id="stroke18"><stop offset="0" stop-color="#C2D8E8"/><stop offset="1" stop-color="#869CAC"/></linearGradient><linearGradient x1="578" y1="378.509" x2="593.151" y2="378.509" gradientUnits="userSpaceOnUse" spreadMethod="pad" id="stroke19"><stop offset="0" stop-color="#C2D8E8"/><stop offset="1" stop-color="#869CAC"/></linearGradient><linearGradient x1="578" y1="392.579" x2="593.151" y2="392.579" gradientUnits="userSpaceOnUse" spreadMethod="pad" id="stroke20"><stop offset="0" stop-color="#C2D8E8"/><stop offset="1" stop-color="#869CAC"/></linearGradient><linearGradient x1="578" y1="406.65" x2="593.151" y2="406.65" gradientUnits="userSpaceOnUse" spreadMethod="pad" id="stroke21"><stop offset="0" stop-color="#C2D8E8"/><stop offset="1" stop-color="#869CAC"/></linearGradient><linearGradient x1="578" y1="420.73" x2="593.151" y2="420.73" gradientUnits="userSpaceOnUse" spreadMethod="pad" id="stroke22"><stop offset="0" stop-color="#C2D8E8"/><stop offset="1" stop-color="#869CAC"/></linearGradient><linearGradient x1="605.8" y1="290.314" x2="605.8" y2="356.813" gradientUnits="userSpaceOnUse" spreadMethod="pad" id="fill23"><stop offset="0" stop-color="#FF8A34"/><stop offset="1" stop-color="#E14E00"/></linearGradient></defs><g clip-path="url(#clip0)" transform="translate(-578 -278)"><path d="M691.603 278.055C696.793 278.055 701 282.263 701 287.452L701 431.548C701 436.737 696.793 440.945 691.603 440.945L588.498 440.945C583.308 440.945 579.101 436.737 579.101 431.548L579.101 287.452C579.101 282.263 583.308 278.055 588.498 278.055Z" fill="url(#fill1)"/><path d="M682.316 297.52C684.102 297.52 685.549 298.967 685.549 300.752L685.549 319.336C685.549 321.121 684.102 322.568 682.316 322.568L615.578 322.568C613.792 322.568 612.345 321.121 612.345 319.336L612.345 300.752C612.345 298.967 613.792 297.52 615.578 297.52Z" fill="url(#fill2)"/><path d="M595.923 294.077C595.923 296.159 594.232 297.85 592.15 297.85 590.069 297.85 588.378 296.159 588.378 294.077 588.378 291.996 590.069 290.304 592.15 290.304 594.232 290.304 595.923 291.996 595.923 294.077Z" fill="url(#fill3)"/><path d="M595.923 308.147C595.923 310.229 594.232 311.92 592.15 311.92 590.069 311.92 588.378 310.229 588.378 308.147 588.378 306.066 590.069 304.375 592.15 304.375 594.232 304.375 595.923 306.066 595.923 308.147Z" fill="url(#fill4)"/><path d="M595.923 322.218C595.923 324.299 594.232 325.991 592.15 325.991 590.069 325.991 588.378 324.299 588.378 322.218 588.378 320.136 590.069 318.445 592.15 318.445 594.232 318.445 595.923 320.136 595.923 322.218Z" fill="url(#fill5)"/><path d="M595.923 336.298C595.923 338.38 594.232 340.071 592.15 340.071 590.069 340.071 588.378 338.38 588.378 336.298 588.378 334.217 590.069 332.525 592.15 332.525 594.232 332.525 595.923 334.217 595.923 336.298Z" fill="url(#fill6)"/><path d="M595.923 350.368C595.923 352.45 594.232 354.141 592.15 354.141 590.069 354.141 588.378 352.45 588.378 350.368 588.378 348.287 590.069 346.596 592.15 346.596 594.232 346.596 595.923 348.287 595.923 350.368Z" fill="url(#fill7)"/><path d="M595.923 364.439C595.923 366.52 594.232 368.211 592.15 368.211 590.069 368.211 588.378 366.52 588.378 364.439 588.378 362.357 590.069 360.666 592.15 360.666 594.232 360.666 595.923 362.357 595.923 364.439Z" fill="url(#fill8)"/><path d="M595.923 378.509C595.923 380.59 594.232 382.282 592.15 382.282 590.069 382.282 588.378 380.59 588.378 378.509 588.378 376.427 590.069 374.736 592.15 374.736 594.232 374.736 595.923 376.427 595.923 378.509Z" fill="url(#fill9)"/><path d="M595.923 392.579C595.923 394.661 594.232 396.352 592.15 396.352 590.069 396.352 588.378 394.661 588.378 392.579 588.378 390.498 590.069 388.806 592.15 388.806 594.232 388.806 595.923 390.498 595.923 392.579Z" fill="url(#fill10)"/><path d="M595.923 406.65C595.923 408.731 594.232 410.422 592.15 410.422 590.069 410.422 588.378 408.731 588.378 406.65 588.378 404.568 590.069 402.877 592.15 402.877 594.232 402.877 595.923 404.568 595.923 406.65Z" fill="url(#fill11)"/><path d="M595.923 420.73C595.923 422.811 594.232 424.503 592.15 424.503 590.069 424.503 588.378 422.811 588.378 420.73 588.378 418.648 590.069 416.957 592.15 416.957 594.232 416.957 595.923 418.648 595.923 420.73Z" fill="url(#fill12)"/><path d="M592.15 294.077 579.001 294.077" stroke="url(#stroke13)" stroke-width="2.00146" stroke-linecap="round" stroke-miterlimit="10" fill="none"/><path d="M592.15 308.147 579.001 308.147" stroke="url(#stroke14)" stroke-width="2.00146" stroke-linecap="round" stroke-miterlimit="10" fill="none"/><path d="M592.15 322.218 579.001 322.218" stroke="url(#stroke15)" stroke-width="2.00146" stroke-linecap="round" stroke-miterlimit="10" fill="none"/><path d="M592.15 336.298 579.001 336.298" stroke="url(#stroke16)" stroke-width="2.00146" stroke-linecap="round" stroke-miterlimit="10" fill="none"/><path d="M592.15 350.368 579.001 350.368" stroke="url(#stroke17)" stroke-width="2.00146" stroke-linecap="round" stroke-miterlimit="10" fill="none"/><path d="M592.15 364.439 579.001 364.439" stroke="url(#stroke18)" stroke-width="2.00146" stroke-linecap="round" stroke-miterlimit="10" fill="none"/><path d="M592.15 378.509 579.001 378.509" stroke="url(#stroke19)" stroke-width="2.00146" stroke-linecap="round" stroke-miterlimit="10" fill="none"/><path d="M592.15 392.579 579.001 392.579" stroke="url(#stroke20)" stroke-width="2.00146" stroke-linecap="round" stroke-miterlimit="10" fill="none"/><path d="M592.15 406.65 579.001 406.65" stroke="url(#stroke21)" stroke-width="2.00146" stroke-linecap="round" stroke-miterlimit="10" fill="none"/><path d="M592.15 420.73 579.001 420.73" stroke="url(#stroke22)" stroke-width="2.00146" stroke-linecap="round" stroke-miterlimit="10" fill="none"/><path d="M612.345 356.813 605.79 353.951 599.236 356.813 599.236 290.304 612.345 290.304 612.345 356.813Z" fill="url(#fill23)"/></g></svg>